<svg width="200" height="200" viewBox="0 0 200 200" fill="none" xmlns="http://www.w3.org/2000/svg">
<g clip-path="url(#clip0_250_21)">
<rect width="200" height="200" fill="#141414"/>
<path d="M11.996 110.28C10.2227 110.28 8.70133 109.991 7.432 109.412C6.18133 108.833 5.20133 107.984 4.492 106.864C3.80133 105.744 3.41867 104.353 3.344 102.692C3.32533 101.927 3.316 101.105 3.316 100.228C3.316 99.3507 3.32533 98.5107 3.344 97.708C3.41867 96.084 3.81067 94.712 4.52 93.592C5.22933 92.4533 6.21867 91.5947 7.488 91.016C8.75733 90.4187 10.26 90.12 11.996 90.12C13.228 90.12 14.3667 90.2787 15.412 90.596C16.4573 90.8947 17.372 91.3427 18.156 91.94C18.94 92.5187 19.5467 93.228 19.976 94.068C20.424 94.8893 20.6573 95.8227 20.676 96.868C20.6947 97.036 20.6387 97.176 20.508 97.288C20.396 97.4 20.256 97.456 20.088 97.456H16.308C16.0653 97.456 15.8787 97.4093 15.748 97.316C15.6173 97.204 15.5053 97.008 15.412 96.728C15.1507 95.7387 14.7213 95.0667 14.124 94.712C13.5453 94.3387 12.8267 94.152 11.968 94.152C10.9413 94.152 10.1293 94.4413 9.532 95.02C8.93467 95.58 8.608 96.5227 8.552 97.848C8.496 99.3787 8.496 100.947 8.552 102.552C8.608 103.877 8.93467 104.829 9.532 105.408C10.1293 105.968 10.9413 106.248 11.968 106.248C12.8267 106.248 13.5547 106.061 14.152 105.688C14.7493 105.315 15.1693 104.643 15.412 103.672C15.4867 103.392 15.5893 103.205 15.72 103.112C15.8693 103 16.0653 102.944 16.308 102.944H20.088C20.256 102.944 20.396 103 20.508 103.112C20.6387 103.224 20.6947 103.364 20.676 103.532C20.6573 104.577 20.424 105.52 19.976 106.36C19.5467 107.181 18.94 107.891 18.156 108.488C17.372 109.067 16.4573 109.515 15.412 109.832C14.3667 110.131 13.228 110.28 11.996 110.28ZM31.6282 110.28C29.9108 110.28 28.4175 110 27.1482 109.44C25.8788 108.88 24.8895 108.04 24.1802 106.92C23.4708 105.781 23.0788 104.363 23.0042 102.664C22.9855 101.861 22.9762 101.059 22.9762 100.256C22.9762 99.4533 22.9855 98.6413 23.0042 97.82C23.0788 96.14 23.4708 94.7307 24.1802 93.592C24.9082 92.4347 25.9068 91.5667 27.1762 90.988C28.4455 90.4093 29.9295 90.12 31.6282 90.12C33.3082 90.12 34.7828 90.4093 36.0522 90.988C37.3402 91.5667 38.3482 92.4347 39.0762 93.592C39.8042 94.7307 40.1962 96.14 40.2522 97.82C40.2895 98.6413 40.3082 99.4533 40.3082 100.256C40.3082 101.059 40.2895 101.861 40.2522 102.664C40.1775 104.363 39.7855 105.781 39.0762 106.92C38.3668 108.04 37.3775 108.88 36.1082 109.44C34.8388 110 33.3455 110.28 31.6282 110.28ZM31.6282 106.248C32.6175 106.248 33.4202 105.949 34.0362 105.352C34.6708 104.755 35.0068 103.803 35.0442 102.496C35.0815 101.675 35.1002 100.9 35.1002 100.172C35.1002 99.444 35.0815 98.688 35.0442 97.904C35.0068 97.0267 34.8388 96.3173 34.5402 95.776C34.2602 95.216 33.8682 94.8053 33.3642 94.544C32.8602 94.2827 32.2815 94.152 31.6282 94.152C30.9935 94.152 30.4242 94.2827 29.9202 94.544C29.4162 94.8053 29.0148 95.216 28.7162 95.776C28.4175 96.3173 28.2495 97.0267 28.2122 97.904C28.1935 98.688 28.1842 99.444 28.1842 100.172C28.1842 100.9 28.1935 101.675 28.2122 102.496C28.2682 103.803 28.6042 104.755 29.2202 105.352C29.8362 105.949 30.6388 106.248 31.6282 106.248ZM44.2538 110C44.0671 110 43.8991 109.935 43.7498 109.804C43.6191 109.673 43.5538 109.505 43.5538 109.3V91.1C43.5538 90.8947 43.6191 90.7267 43.7498 90.596C43.8991 90.4653 44.0671 90.4 44.2538 90.4H47.2778C47.5764 90.4 47.8004 90.484 47.9498 90.652C48.1178 90.8013 48.2204 90.9227 48.2578 91.016L53.1858 99.864L58.1138 91.016C58.1698 90.9227 58.2631 90.8013 58.3938 90.652C58.5431 90.484 58.7764 90.4 59.0938 90.4H62.0898C62.2951 90.4 62.4631 90.4653 62.5938 90.596C62.7431 90.7267 62.8178 90.8947 62.8178 91.1V109.3C62.8178 109.505 62.7431 109.673 62.5938 109.804C62.4631 109.935 62.2951 110 62.0898 110H58.7578C58.5524 110 58.3751 109.935 58.2258 109.804C58.0951 109.673 58.0298 109.505 58.0298 109.3V98.8L54.8658 104.652C54.7911 104.82 54.6791 104.969 54.5298 105.1C54.3804 105.231 54.1751 105.296 53.9138 105.296H52.4578C52.1964 105.296 51.9911 105.231 51.8418 105.1C51.6924 104.969 51.5711 104.82 51.4778 104.652L48.3138 98.8V109.3C48.3138 109.505 48.2484 109.673 48.1178 109.804C47.9871 109.935 47.8191 110 47.6138 110H44.2538ZM67.4139 110C67.2086 110 67.0406 109.935 66.9099 109.804C66.7792 109.673 66.7139 109.505 66.7139 109.3V91.1C66.7139 90.8947 66.7792 90.7267 66.9099 90.596C67.0406 90.4653 67.2086 90.4 67.4139 90.4H71.1659C71.3712 90.4 71.5392 90.4653 71.6699 90.596C71.8006 90.7267 71.8659 90.8947 71.8659 91.1V109.3C71.8659 109.505 71.8006 109.673 71.6699 109.804C71.5392 109.935 71.3712 110 71.1659 110H67.4139ZM76.492 110C76.2867 110 76.1187 109.935 75.988 109.804C75.8574 109.673 75.792 109.505 75.792 109.3V91.1C75.792 90.8947 75.8574 90.7267 75.988 90.596C76.1187 90.4653 76.2867 90.4 76.492 90.4H79.46C79.7774 90.4 80.0014 90.4747 80.132 90.624C80.2814 90.7547 80.3747 90.8573 80.412 90.932L87.244 101.712V91.1C87.244 90.8947 87.3094 90.7267 87.44 90.596C87.5707 90.4653 87.7387 90.4 87.944 90.4H91.304C91.5094 90.4 91.6774 90.4653 91.808 90.596C91.9387 90.7267 92.004 90.8947 92.004 91.1V109.3C92.004 109.487 91.9387 109.655 91.808 109.804C91.6774 109.935 91.5094 110 91.304 110H88.308C88.0094 110 87.7854 109.925 87.636 109.776C87.5054 109.627 87.4214 109.524 87.384 109.468L80.552 99.108V109.3C80.552 109.505 80.4867 109.673 80.356 109.804C80.2254 109.935 80.0574 110 79.852 110H76.492ZM104.009 110.28C102.236 110.28 100.705 109.991 99.417 109.412C98.1477 108.815 97.1584 107.956 96.449 106.836C95.7584 105.697 95.3757 104.316 95.301 102.692C95.2824 101.889 95.273 101.04 95.273 100.144C95.273 99.2293 95.2824 98.3613 95.301 97.54C95.3757 95.9533 95.7677 94.6093 96.477 93.508C97.1864 92.4067 98.185 91.5667 99.473 90.988C100.761 90.4093 102.273 90.12 104.009 90.12C105.409 90.12 106.65 90.2973 107.733 90.652C108.816 90.988 109.721 91.4453 110.449 92.024C111.196 92.6027 111.756 93.2373 112.129 93.928C112.521 94.6187 112.726 95.3 112.745 95.972C112.764 96.14 112.708 96.28 112.577 96.392C112.465 96.504 112.325 96.56 112.157 96.56H108.069C107.864 96.56 107.705 96.532 107.593 96.476C107.5 96.4013 107.416 96.2987 107.341 96.168C107.21 95.888 107.014 95.5987 106.753 95.3C106.51 94.9827 106.165 94.712 105.717 94.488C105.288 94.264 104.718 94.152 104.009 94.152C102.945 94.152 102.105 94.432 101.489 94.992C100.892 95.552 100.565 96.448 100.509 97.68C100.453 99.2853 100.453 100.909 100.509 102.552C100.565 103.859 100.91 104.801 101.545 105.38C102.18 105.959 103.02 106.248 104.065 106.248C104.774 106.248 105.4 106.127 105.941 105.884C106.501 105.641 106.94 105.268 107.257 104.764C107.574 104.241 107.733 103.579 107.733 102.776V102.244H105.101C104.896 102.244 104.718 102.179 104.569 102.048C104.438 101.899 104.373 101.721 104.373 101.516V99.444C104.373 99.2387 104.438 99.0707 104.569 98.94C104.718 98.7907 104.896 98.716 105.101 98.716H112.157C112.362 98.716 112.53 98.7907 112.661 98.94C112.792 99.0707 112.857 99.2387 112.857 99.444V102.636C112.857 104.241 112.493 105.613 111.765 106.752C111.037 107.891 110.001 108.768 108.657 109.384C107.332 109.981 105.782 110.28 104.009 110.28ZM129.338 110.28C127.472 110.28 125.922 110.019 124.69 109.496C123.458 108.955 122.525 108.255 121.89 107.396C121.256 106.537 120.92 105.623 120.882 104.652C120.882 104.503 120.938 104.372 121.05 104.26C121.181 104.129 121.33 104.064 121.498 104.064H125.026C125.288 104.064 125.484 104.111 125.614 104.204C125.764 104.297 125.894 104.419 126.006 104.568C126.156 104.848 126.361 105.119 126.622 105.38C126.902 105.641 127.257 105.856 127.686 106.024C128.134 106.173 128.685 106.248 129.338 106.248C130.421 106.248 131.233 106.08 131.774 105.744C132.334 105.408 132.614 104.951 132.614 104.372C132.614 103.961 132.465 103.625 132.166 103.364C131.868 103.084 131.382 102.841 130.71 102.636C130.057 102.412 129.18 102.188 128.078 101.964C126.66 101.665 125.446 101.283 124.438 100.816C123.449 100.331 122.693 99.7053 122.17 98.94C121.648 98.156 121.386 97.1853 121.386 96.028C121.386 94.8893 121.704 93.872 122.338 92.976C122.992 92.08 123.897 91.38 125.054 90.876C126.212 90.372 127.584 90.12 129.17 90.12C130.458 90.12 131.588 90.288 132.558 90.624C133.548 90.96 134.378 91.408 135.05 91.968C135.722 92.528 136.226 93.1253 136.562 93.76C136.917 94.376 137.104 94.9827 137.122 95.58C137.122 95.7293 137.066 95.8693 136.954 96C136.842 96.112 136.702 96.168 136.534 96.168H132.838C132.633 96.168 132.456 96.1307 132.306 96.056C132.157 95.9813 132.026 95.86 131.914 95.692C131.802 95.2813 131.504 94.9267 131.018 94.628C130.552 94.3107 129.936 94.152 129.17 94.152C128.349 94.152 127.705 94.3013 127.238 94.6C126.79 94.88 126.566 95.3187 126.566 95.916C126.566 96.2893 126.688 96.616 126.93 96.896C127.192 97.176 127.612 97.4187 128.19 97.624C128.788 97.8293 129.6 98.044 130.626 98.268C132.325 98.5853 133.697 98.9867 134.742 99.472C135.788 99.9387 136.553 100.555 137.038 101.32C137.524 102.067 137.766 103.009 137.766 104.148C137.766 105.417 137.402 106.519 136.674 107.452C135.965 108.367 134.976 109.067 133.706 109.552C132.437 110.037 130.981 110.28 129.338 110.28ZM148.577 110.28C146.86 110.28 145.367 110 144.097 109.44C142.828 108.88 141.839 108.04 141.129 106.92C140.42 105.781 140.028 104.363 139.953 102.664C139.935 101.861 139.925 101.059 139.925 100.256C139.925 99.4533 139.935 98.6413 139.953 97.82C140.028 96.14 140.42 94.7307 141.129 93.592C141.857 92.4347 142.856 91.5667 144.125 90.988C145.395 90.4093 146.879 90.12 148.577 90.12C150.257 90.12 151.732 90.4093 153.001 90.988C154.289 91.5667 155.297 92.4347 156.025 93.592C156.753 94.7307 157.145 96.14 157.201 97.82C157.239 98.6413 157.257 99.4533 157.257 100.256C157.257 101.059 157.239 101.861 157.201 102.664C157.127 104.363 156.735 105.781 156.025 106.92C155.316 108.04 154.327 108.88 153.057 109.44C151.788 110 150.295 110.28 148.577 110.28ZM148.577 106.248C149.567 106.248 150.369 105.949 150.985 105.352C151.62 104.755 151.956 103.803 151.993 102.496C152.031 101.675 152.049 100.9 152.049 100.172C152.049 99.444 152.031 98.688 151.993 97.904C151.956 97.0267 151.788 96.3173 151.489 95.776C151.209 95.216 150.817 94.8053 150.313 94.544C149.809 94.2827 149.231 94.152 148.577 94.152C147.943 94.152 147.373 94.2827 146.869 94.544C146.365 94.8053 145.964 95.216 145.665 95.776C145.367 96.3173 145.199 97.0267 145.161 97.904C145.143 98.688 145.133 99.444 145.133 100.172C145.133 100.9 145.143 101.675 145.161 102.496C145.217 103.803 145.553 104.755 146.169 105.352C146.785 105.949 147.588 106.248 148.577 106.248ZM168.511 110.28C166.794 110.28 165.3 110 164.031 109.44C162.762 108.88 161.772 108.04 161.063 106.92C160.354 105.781 159.962 104.363 159.887 102.664C159.868 101.861 159.859 101.059 159.859 100.256C159.859 99.4533 159.868 98.6413 159.887 97.82C159.962 96.14 160.354 94.7307 161.063 93.592C161.791 92.4347 162.79 91.5667 164.059 90.988C165.328 90.4093 166.812 90.12 168.511 90.12C170.191 90.12 171.666 90.4093 172.935 90.988C174.223 91.5667 175.231 92.4347 175.959 93.592C176.687 94.7307 177.079 96.14 177.135 97.82C177.172 98.6413 177.191 99.4533 177.191 100.256C177.191 101.059 177.172 101.861 177.135 102.664C177.06 104.363 176.668 105.781 175.959 106.92C175.25 108.04 174.26 108.88 172.991 109.44C171.722 110 170.228 110.28 168.511 110.28ZM168.511 106.248C169.5 106.248 170.303 105.949 170.919 105.352C171.554 104.755 171.89 103.803 171.927 102.496C171.964 101.675 171.983 100.9 171.983 100.172C171.983 99.444 171.964 98.688 171.927 97.904C171.89 97.0267 171.722 96.3173 171.423 95.776C171.143 95.216 170.751 94.8053 170.247 94.544C169.743 94.2827 169.164 94.152 168.511 94.152C167.876 94.152 167.307 94.2827 166.803 94.544C166.299 94.8053 165.898 95.216 165.599 95.776C165.3 96.3173 165.132 97.0267 165.095 97.904C165.076 98.688 165.067 99.444 165.067 100.172C165.067 100.9 165.076 101.675 165.095 102.496C165.151 103.803 165.487 104.755 166.103 105.352C166.719 105.949 167.522 106.248 168.511 106.248ZM181.137 110C180.931 110 180.763 109.935 180.633 109.804C180.502 109.673 180.437 109.505 180.437 109.3V91.1C180.437 90.8947 180.502 90.7267 180.633 90.596C180.763 90.4653 180.931 90.4 181.137 90.4H184.105C184.422 90.4 184.646 90.4747 184.777 90.624C184.926 90.7547 185.019 90.8573 185.057 90.932L191.889 101.712V91.1C191.889 90.8947 191.954 90.7267 192.085 90.596C192.215 90.4653 192.383 90.4 192.589 90.4H195.949C196.154 90.4 196.322 90.4653 196.453 90.596C196.583 90.7267 196.649 90.8947 196.649 91.1V109.3C196.649 109.487 196.583 109.655 196.453 109.804C196.322 109.935 196.154 110 195.949 110H192.953C192.654 110 192.43 109.925 192.281 109.776C192.15 109.627 192.066 109.524 192.029 109.468L185.197 99.108V109.3C185.197 109.505 185.131 109.673 185.001 109.804C184.87 109.935 184.702 110 184.497 110H181.137Z" fill="white"/>
<path d="M18.282 141.26C16.6353 141.26 15.2227 140.991 14.044 140.454C12.8827 139.917 11.9727 139.128 11.314 138.088C10.6727 137.048 10.3173 135.757 10.248 134.214C10.2307 133.503 10.222 132.741 10.222 131.926C10.222 131.111 10.2307 130.331 10.248 129.586C10.3173 128.078 10.6813 126.804 11.34 125.764C11.9987 124.707 12.9173 123.909 14.096 123.372C15.2747 122.817 16.67 122.54 18.282 122.54C19.426 122.54 20.4833 122.687 21.454 122.982C22.4247 123.259 23.274 123.675 24.002 124.23C24.73 124.767 25.2933 125.426 25.692 126.206C26.108 126.969 26.3247 127.835 26.342 128.806C26.3593 128.962 26.3073 129.092 26.186 129.196C26.082 129.3 25.952 129.352 25.796 129.352H22.286C22.0607 129.352 21.8873 129.309 21.766 129.222C21.6447 129.118 21.5407 128.936 21.454 128.676C21.2113 127.757 20.8127 127.133 20.258 126.804C19.7207 126.457 19.0533 126.284 18.256 126.284C17.3027 126.284 16.5487 126.553 15.994 127.09C15.4393 127.61 15.136 128.485 15.084 129.716C15.032 131.137 15.032 132.593 15.084 134.084C15.136 135.315 15.4393 136.199 15.994 136.736C16.5487 137.256 17.3027 137.516 18.256 137.516C19.0533 137.516 19.7293 137.343 20.284 136.996C20.8387 136.649 21.2287 136.025 21.454 135.124C21.5233 134.864 21.6187 134.691 21.74 134.604C21.8787 134.5 22.0607 134.448 22.286 134.448H25.796C25.952 134.448 26.082 134.5 26.186 134.604C26.3073 134.708 26.3593 134.838 26.342 134.994C26.3247 135.965 26.108 136.84 25.692 137.62C25.2933 138.383 24.73 139.041 24.002 139.596C23.274 140.133 22.4247 140.549 21.454 140.844C20.4833 141.121 19.426 141.26 18.282 141.26ZM36.5119 141.26C34.9172 141.26 33.5305 141 32.3519 140.48C31.1732 139.96 30.2545 139.18 29.5959 138.14C28.9372 137.083 28.5732 135.765 28.5039 134.188C28.4865 133.443 28.4779 132.697 28.4779 131.952C28.4779 131.207 28.4865 130.453 28.5039 129.69C28.5732 128.13 28.9372 126.821 29.5959 125.764C30.2719 124.689 31.1992 123.883 32.3779 123.346C33.5565 122.809 34.9345 122.54 36.5119 122.54C38.0719 122.54 39.4412 122.809 40.6199 123.346C41.8159 123.883 42.7519 124.689 43.4279 125.764C44.1039 126.821 44.4679 128.13 44.5199 129.69C44.5545 130.453 44.5719 131.207 44.5719 131.952C44.5719 132.697 44.5545 133.443 44.5199 134.188C44.4505 135.765 44.0865 137.083 43.4279 138.14C42.7692 139.18 41.8505 139.96 40.6719 140.48C39.4932 141 38.1065 141.26 36.5119 141.26ZM36.5119 137.516C37.4305 137.516 38.1759 137.239 38.7479 136.684C39.3372 136.129 39.6492 135.245 39.6839 134.032C39.7185 133.269 39.7359 132.55 39.7359 131.874C39.7359 131.198 39.7185 130.496 39.6839 129.768C39.6492 128.953 39.4932 128.295 39.2159 127.792C38.9559 127.272 38.5919 126.891 38.1239 126.648C37.6559 126.405 37.1185 126.284 36.5119 126.284C35.9225 126.284 35.3939 126.405 34.9259 126.648C34.4579 126.891 34.0852 127.272 33.8079 127.792C33.5305 128.295 33.3745 128.953 33.3399 129.768C33.3225 130.496 33.3139 131.198 33.3139 131.874C33.3139 132.55 33.3225 133.269 33.3399 134.032C33.3919 135.245 33.7039 136.129 34.2759 136.684C34.8479 137.239 35.5932 137.516 36.5119 137.516ZM48.2356 141C48.0623 141 47.9063 140.939 47.7676 140.818C47.6463 140.697 47.5856 140.541 47.5856 140.35V123.45C47.5856 123.259 47.6463 123.103 47.7676 122.982C47.9063 122.861 48.0623 122.8 48.2356 122.8H51.0436C51.321 122.8 51.529 122.878 51.6676 123.034C51.8236 123.173 51.919 123.285 51.9536 123.372L56.5296 131.588L61.1056 123.372C61.1576 123.285 61.2443 123.173 61.3656 123.034C61.5043 122.878 61.721 122.8 62.0156 122.8H64.7976C64.9883 122.8 65.1443 122.861 65.2656 122.982C65.4043 123.103 65.4736 123.259 65.4736 123.45V140.35C65.4736 140.541 65.4043 140.697 65.2656 140.818C65.1443 140.939 64.9883 141 64.7976 141H61.7036C61.513 141 61.3483 140.939 61.2096 140.818C61.0883 140.697 61.0276 140.541 61.0276 140.35V130.6L58.0896 136.034C58.0203 136.19 57.9163 136.329 57.7776 136.45C57.639 136.571 57.4483 136.632 57.2056 136.632H55.8536C55.611 136.632 55.4203 136.571 55.2816 136.45C55.143 136.329 55.0303 136.19 54.9436 136.034L52.0056 130.6V140.35C52.0056 140.541 51.945 140.697 51.8236 140.818C51.7023 140.939 51.5463 141 51.3556 141H48.2356ZM69.7415 141C69.5508 141 69.3948 140.939 69.2735 140.818C69.1522 140.697 69.0915 140.541 69.0915 140.35V123.45C69.0915 123.259 69.1522 123.103 69.2735 122.982C69.3948 122.861 69.5508 122.8 69.7415 122.8H73.2255C73.4162 122.8 73.5722 122.861 73.6935 122.982C73.8148 123.103 73.8755 123.259 73.8755 123.45V140.35C73.8755 140.541 73.8148 140.697 73.6935 140.818C73.5722 140.939 73.4162 141 73.2255 141H69.7415ZM78.1712 141C77.9805 141 77.8245 140.939 77.7032 140.818C77.5818 140.697 77.5212 140.541 77.5212 140.35V123.45C77.5212 123.259 77.5818 123.103 77.7032 122.982C77.8245 122.861 77.9805 122.8 78.1712 122.8H80.9272C81.2218 122.8 81.4298 122.869 81.5512 123.008C81.6898 123.129 81.7765 123.225 81.8112 123.294L88.1552 133.304V123.45C88.1552 123.259 88.2158 123.103 88.3372 122.982C88.4585 122.861 88.6145 122.8 88.8052 122.8H91.9252C92.1158 122.8 92.2718 122.861 92.3932 122.982C92.5145 123.103 92.5752 123.259 92.5752 123.45V140.35C92.5752 140.523 92.5145 140.679 92.3932 140.818C92.2718 140.939 92.1158 141 91.9252 141H89.1432C88.8658 141 88.6578 140.931 88.5192 140.792C88.3978 140.653 88.3198 140.558 88.2852 140.506L81.9412 130.886V140.35C81.9412 140.541 81.8805 140.697 81.7592 140.818C81.6378 140.939 81.4818 141 81.2912 141H78.1712ZM103.723 141.26C102.076 141.26 100.655 140.991 99.4587 140.454C98.28 139.899 97.3613 139.102 96.7027 138.062C96.0613 137.005 95.706 135.722 95.6367 134.214C95.6193 133.469 95.6107 132.68 95.6107 131.848C95.6107 130.999 95.6193 130.193 95.6367 129.43C95.706 127.957 96.07 126.709 96.7287 125.686C97.3873 124.663 98.3147 123.883 99.5107 123.346C100.707 122.809 102.111 122.54 103.723 122.54C105.023 122.54 106.175 122.705 107.181 123.034C108.186 123.346 109.027 123.771 109.703 124.308C110.396 124.845 110.916 125.435 111.263 126.076C111.627 126.717 111.817 127.35 111.835 127.974C111.852 128.13 111.8 128.26 111.679 128.364C111.575 128.468 111.445 128.52 111.289 128.52H107.493C107.302 128.52 107.155 128.494 107.051 128.442C106.964 128.373 106.886 128.277 106.817 128.156C106.695 127.896 106.513 127.627 106.271 127.35C106.045 127.055 105.725 126.804 105.309 126.596C104.91 126.388 104.381 126.284 103.723 126.284C102.735 126.284 101.955 126.544 101.383 127.064C100.828 127.584 100.525 128.416 100.473 129.56C100.421 131.051 100.421 132.559 100.473 134.084C100.525 135.297 100.845 136.173 101.435 136.71C102.024 137.247 102.804 137.516 103.775 137.516C104.433 137.516 105.014 137.403 105.517 137.178C106.037 136.953 106.444 136.606 106.739 136.138C107.033 135.653 107.181 135.037 107.181 134.292V133.798H104.737C104.546 133.798 104.381 133.737 104.243 133.616C104.121 133.477 104.061 133.313 104.061 133.122V131.198C104.061 131.007 104.121 130.851 104.243 130.73C104.381 130.591 104.546 130.522 104.737 130.522H111.289C111.479 130.522 111.635 130.591 111.757 130.73C111.878 130.851 111.939 131.007 111.939 131.198V134.162C111.939 135.653 111.601 136.927 110.925 137.984C110.249 139.041 109.287 139.856 108.039 140.428C106.808 140.983 105.369 141.26 103.723 141.26ZM127.243 141.26C125.509 141.26 124.071 141.017 122.927 140.532C121.783 140.029 120.916 139.379 120.327 138.582C119.737 137.785 119.425 136.935 119.391 136.034C119.391 135.895 119.443 135.774 119.547 135.67C119.668 135.549 119.807 135.488 119.963 135.488H123.239C123.481 135.488 123.663 135.531 123.785 135.618C123.923 135.705 124.045 135.817 124.149 135.956C124.287 136.216 124.478 136.467 124.721 136.71C124.981 136.953 125.31 137.152 125.709 137.308C126.125 137.447 126.636 137.516 127.243 137.516C128.248 137.516 129.002 137.36 129.505 137.048C130.025 136.736 130.285 136.311 130.285 135.774C130.285 135.393 130.146 135.081 129.869 134.838C129.591 134.578 129.141 134.353 128.517 134.162C127.91 133.954 127.095 133.746 126.073 133.538C124.755 133.261 123.629 132.905 122.693 132.472C121.774 132.021 121.072 131.441 120.587 130.73C120.101 130.002 119.859 129.101 119.859 128.026C119.859 126.969 120.153 126.024 120.743 125.192C121.349 124.36 122.19 123.71 123.265 123.242C124.339 122.774 125.613 122.54 127.087 122.54C128.283 122.54 129.331 122.696 130.233 123.008C131.151 123.32 131.923 123.736 132.547 124.256C133.171 124.776 133.639 125.331 133.951 125.92C134.28 126.492 134.453 127.055 134.471 127.61C134.471 127.749 134.419 127.879 134.315 128C134.211 128.104 134.081 128.156 133.925 128.156H130.493C130.302 128.156 130.137 128.121 129.999 128.052C129.86 127.983 129.739 127.87 129.635 127.714C129.531 127.333 129.253 127.003 128.803 126.726C128.369 126.431 127.797 126.284 127.087 126.284C126.324 126.284 125.726 126.423 125.293 126.7C124.877 126.96 124.669 127.367 124.669 127.922C124.669 128.269 124.781 128.572 125.007 128.832C125.249 129.092 125.639 129.317 126.177 129.508C126.731 129.699 127.485 129.898 128.439 130.106C130.016 130.401 131.29 130.773 132.261 131.224C133.231 131.657 133.942 132.229 134.393 132.94C134.843 133.633 135.069 134.509 135.069 135.566C135.069 136.745 134.731 137.767 134.055 138.634C133.396 139.483 132.477 140.133 131.299 140.584C130.12 141.035 128.768 141.26 127.243 141.26ZM145.108 141.26C143.513 141.26 142.126 141 140.948 140.48C139.769 139.96 138.85 139.18 138.192 138.14C137.533 137.083 137.169 135.765 137.1 134.188C137.082 133.443 137.074 132.697 137.074 131.952C137.074 131.207 137.082 130.453 137.1 129.69C137.169 128.13 137.533 126.821 138.192 125.764C138.868 124.689 139.795 123.883 140.974 123.346C142.152 122.809 143.53 122.54 145.108 122.54C146.668 122.54 148.037 122.809 149.216 123.346C150.412 123.883 151.348 124.689 152.024 125.764C152.7 126.821 153.064 128.13 153.116 129.69C153.15 130.453 153.168 131.207 153.168 131.952C153.168 132.697 153.15 133.443 153.116 134.188C153.046 135.765 152.682 137.083 152.024 138.14C151.365 139.18 150.446 139.96 149.268 140.48C148.089 141 146.702 141.26 145.108 141.26ZM145.108 137.516C146.026 137.516 146.772 137.239 147.344 136.684C147.933 136.129 148.245 135.245 148.28 134.032C148.314 133.269 148.332 132.55 148.332 131.874C148.332 131.198 148.314 130.496 148.28 129.768C148.245 128.953 148.089 128.295 147.812 127.792C147.552 127.272 147.188 126.891 146.72 126.648C146.252 126.405 145.714 126.284 145.108 126.284C144.518 126.284 143.99 126.405 143.522 126.648C143.054 126.891 142.681 127.272 142.404 127.792C142.126 128.295 141.97 128.953 141.936 129.768C141.918 130.496 141.91 131.198 141.91 131.874C141.91 132.55 141.918 133.269 141.936 134.032C141.988 135.245 142.3 136.129 142.872 136.684C143.444 137.239 144.189 137.516 145.108 137.516ZM163.617 141.26C162.023 141.26 160.636 141 159.457 140.48C158.279 139.96 157.36 139.18 156.701 138.14C156.043 137.083 155.679 135.765 155.609 134.188C155.592 133.443 155.583 132.697 155.583 131.952C155.583 131.207 155.592 130.453 155.609 129.69C155.679 128.13 156.043 126.821 156.701 125.764C157.377 124.689 158.305 123.883 159.483 123.346C160.662 122.809 162.04 122.54 163.617 122.54C165.177 122.54 166.547 122.809 167.725 123.346C168.921 123.883 169.857 124.689 170.533 125.764C171.209 126.821 171.573 128.13 171.625 129.69C171.66 130.453 171.677 131.207 171.677 131.952C171.677 132.697 171.66 133.443 171.625 134.188C171.556 135.765 171.192 137.083 170.533 138.14C169.875 139.18 168.956 139.96 167.777 140.48C166.599 141 165.212 141.26 163.617 141.26ZM163.617 137.516C164.536 137.516 165.281 137.239 165.853 136.684C166.443 136.129 166.755 135.245 166.789 134.032C166.824 133.269 166.841 132.55 166.841 131.874C166.841 131.198 166.824 130.496 166.789 129.768C166.755 128.953 166.599 128.295 166.321 127.792C166.061 127.272 165.697 126.891 165.229 126.648C164.761 126.405 164.224 126.284 163.617 126.284C163.028 126.284 162.499 126.405 162.031 126.648C161.563 126.891 161.191 127.272 160.913 127.792C160.636 128.295 160.48 128.953 160.445 129.768C160.428 130.496 160.419 131.198 160.419 131.874C160.419 132.55 160.428 133.269 160.445 134.032C160.497 135.245 160.809 136.129 161.381 136.684C161.953 137.239 162.699 137.516 163.617 137.516ZM175.341 141C175.15 141 174.994 140.939 174.873 140.818C174.752 140.697 174.691 140.541 174.691 140.35V123.45C174.691 123.259 174.752 123.103 174.873 122.982C174.994 122.861 175.15 122.8 175.341 122.8H178.097C178.392 122.8 178.6 122.869 178.721 123.008C178.86 123.129 178.946 123.225 178.981 123.294L185.325 133.304V123.45C185.325 123.259 185.386 123.103 185.507 122.982C185.628 122.861 185.784 122.8 185.975 122.8H189.095C189.286 122.8 189.442 122.861 189.563 122.982C189.684 123.103 189.745 123.259 189.745 123.45V140.35C189.745 140.523 189.684 140.679 189.563 140.818C189.442 140.939 189.286 141 189.095 141H186.313C186.036 141 185.828 140.931 185.689 140.792C185.568 140.653 185.49 140.558 185.455 140.506L179.111 130.886V140.35C179.111 140.541 179.05 140.697 178.929 140.818C178.808 140.939 178.652 141 178.461 141H175.341Z" fill="#CCCCCC"/>
<path d="M18.282 77.26C16.6353 77.26 15.2227 76.9913 14.044 76.454C12.8827 75.9167 11.9727 75.128 11.314 74.088C10.6727 73.048 10.3173 71.7567 10.248 70.214C10.2307 69.5033 10.222 68.7407 10.222 67.926C10.222 67.1113 10.2307 66.3313 10.248 65.586C10.3173 64.078 10.6813 62.804 11.34 61.764C11.9987 60.7067 12.9173 59.9093 14.096 59.372C15.2747 58.8173 16.67 58.54 18.282 58.54C19.426 58.54 20.4833 58.6873 21.454 58.982C22.4247 59.2593 23.274 59.6753 24.002 60.23C24.73 60.7673 25.2933 61.426 25.692 62.206C26.108 62.9687 26.3247 63.8353 26.342 64.806C26.3593 64.962 26.3073 65.092 26.186 65.196C26.082 65.3 25.952 65.352 25.796 65.352H22.286C22.0607 65.352 21.8873 65.3087 21.766 65.222C21.6447 65.118 21.5407 64.936 21.454 64.676C21.2113 63.7573 20.8127 63.1333 20.258 62.804C19.7207 62.4573 19.0533 62.284 18.256 62.284C17.3027 62.284 16.5487 62.5527 15.994 63.09C15.4393 63.61 15.136 64.4853 15.084 65.716C15.032 67.1373 15.032 68.5933 15.084 70.084C15.136 71.3147 15.4393 72.1987 15.994 72.736C16.5487 73.256 17.3027 73.516 18.256 73.516C19.0533 73.516 19.7293 73.3427 20.284 72.996C20.8387 72.6493 21.2287 72.0253 21.454 71.124C21.5233 70.864 21.6187 70.6907 21.74 70.604C21.8787 70.5 22.0607 70.448 22.286 70.448H25.796C25.952 70.448 26.082 70.5 26.186 70.604C26.3073 70.708 26.3593 70.838 26.342 70.994C26.3247 71.9647 26.108 72.84 25.692 73.62C25.2933 74.3827 24.73 75.0413 24.002 75.596C23.274 76.1333 22.4247 76.5493 21.454 76.844C20.4833 77.1213 19.426 77.26 18.282 77.26ZM36.5119 77.26C34.9172 77.26 33.5305 77 32.3519 76.48C31.1732 75.96 30.2545 75.18 29.5959 74.14C28.9372 73.0827 28.5732 71.7653 28.5039 70.188C28.4865 69.4427 28.4779 68.6973 28.4779 67.952C28.4779 67.2067 28.4865 66.4527 28.5039 65.69C28.5732 64.13 28.9372 62.8213 29.5959 61.764C30.2719 60.6893 31.1992 59.8833 32.3779 59.346C33.5565 58.8087 34.9345 58.54 36.5119 58.54C38.0719 58.54 39.4412 58.8087 40.6199 59.346C41.8159 59.8833 42.7519 60.6893 43.4279 61.764C44.1039 62.8213 44.4679 64.13 44.5199 65.69C44.5545 66.4527 44.5719 67.2067 44.5719 67.952C44.5719 68.6973 44.5545 69.4427 44.5199 70.188C44.4505 71.7653 44.0865 73.0827 43.4279 74.14C42.7692 75.18 41.8505 75.96 40.6719 76.48C39.4932 77 38.1065 77.26 36.5119 77.26ZM36.5119 73.516C37.4305 73.516 38.1759 73.2387 38.7479 72.684C39.3372 72.1293 39.6492 71.2453 39.6839 70.032C39.7185 69.2693 39.7359 68.55 39.7359 67.874C39.7359 67.198 39.7185 66.496 39.6839 65.768C39.6492 64.9533 39.4932 64.2947 39.2159 63.792C38.9559 63.272 38.5919 62.8907 38.1239 62.648C37.6559 62.4053 37.1185 62.284 36.5119 62.284C35.9225 62.284 35.3939 62.4053 34.9259 62.648C34.4579 62.8907 34.0852 63.272 33.8079 63.792C33.5305 64.2947 33.3745 64.9533 33.3399 65.768C33.3225 66.496 33.3139 67.198 33.3139 67.874C33.3139 68.55 33.3225 69.2693 33.3399 70.032C33.3919 71.2453 33.7039 72.1293 34.2759 72.684C34.8479 73.2387 35.5932 73.516 36.5119 73.516ZM48.2356 77C48.0623 77 47.9063 76.9393 47.7676 76.818C47.6463 76.6967 47.5856 76.5407 47.5856 76.35V59.45C47.5856 59.2593 47.6463 59.1033 47.7676 58.982C47.9063 58.8607 48.0623 58.8 48.2356 58.8H51.0436C51.321 58.8 51.529 58.878 51.6676 59.034C51.8236 59.1727 51.919 59.2853 51.9536 59.372L56.5296 67.588L61.1056 59.372C61.1576 59.2853 61.2443 59.1727 61.3656 59.034C61.5043 58.878 61.721 58.8 62.0156 58.8H64.7976C64.9883 58.8 65.1443 58.8607 65.2656 58.982C65.4043 59.1033 65.4736 59.2593 65.4736 59.45V76.35C65.4736 76.5407 65.4043 76.6967 65.2656 76.818C65.1443 76.9393 64.9883 77 64.7976 77H61.7036C61.513 77 61.3483 76.9393 61.2096 76.818C61.0883 76.6967 61.0276 76.5407 61.0276 76.35V66.6L58.0896 72.034C58.0203 72.19 57.9163 72.3287 57.7776 72.45C57.639 72.5713 57.4483 72.632 57.2056 72.632H55.8536C55.611 72.632 55.4203 72.5713 55.2816 72.45C55.143 72.3287 55.0303 72.19 54.9436 72.034L52.0056 66.6V76.35C52.0056 76.5407 51.945 76.6967 51.8236 76.818C51.7023 76.9393 51.5463 77 51.3556 77H48.2356ZM69.7415 77C69.5508 77 69.3948 76.9393 69.2735 76.818C69.1522 76.6967 69.0915 76.5407 69.0915 76.35V59.45C69.0915 59.2593 69.1522 59.1033 69.2735 58.982C69.3948 58.8607 69.5508 58.8 69.7415 58.8H73.2255C73.4162 58.8 73.5722 58.8607 73.6935 58.982C73.8148 59.1033 73.8755 59.2593 73.8755 59.45V76.35C73.8755 76.5407 73.8148 76.6967 73.6935 76.818C73.5722 76.9393 73.4162 77 73.2255 77H69.7415ZM78.1712 77C77.9805 77 77.8245 76.9393 77.7032 76.818C77.5818 76.6967 77.5212 76.5407 77.5212 76.35V59.45C77.5212 59.2593 77.5818 59.1033 77.7032 58.982C77.8245 58.8607 77.9805 58.8 78.1712 58.8H80.9272C81.2218 58.8 81.4298 58.8693 81.5512 59.008C81.6898 59.1293 81.7765 59.2247 81.8112 59.294L88.1552 69.304V59.45C88.1552 59.2593 88.2158 59.1033 88.3372 58.982C88.4585 58.8607 88.6145 58.8 88.8052 58.8H91.9252C92.1158 58.8 92.2718 58.8607 92.3932 58.982C92.5145 59.1033 92.5752 59.2593 92.5752 59.45V76.35C92.5752 76.5233 92.5145 76.6793 92.3932 76.818C92.2718 76.9393 92.1158 77 91.9252 77H89.1432C88.8658 77 88.6578 76.9307 88.5192 76.792C88.3978 76.6533 88.3198 76.558 88.2852 76.506L81.9412 66.886V76.35C81.9412 76.5407 81.8805 76.6967 81.7592 76.818C81.6378 76.9393 81.4818 77 81.2912 77H78.1712ZM103.723 77.26C102.076 77.26 100.655 76.9913 99.4587 76.454C98.28 75.8993 97.3613 75.102 96.7027 74.062C96.0613 73.0047 95.706 71.722 95.6367 70.214C95.6193 69.4687 95.6107 68.68 95.6107 67.848C95.6107 66.9987 95.6193 66.1927 95.6367 65.43C95.706 63.9567 96.07 62.7087 96.7287 61.686C97.3873 60.6633 98.3147 59.8833 99.5107 59.346C100.707 58.8087 102.111 58.54 103.723 58.54C105.023 58.54 106.175 58.7047 107.181 59.034C108.186 59.346 109.027 59.7707 109.703 60.308C110.396 60.8453 110.916 61.4347 111.263 62.076C111.627 62.7173 111.817 63.35 111.835 63.974C111.852 64.13 111.8 64.26 111.679 64.364C111.575 64.468 111.445 64.52 111.289 64.52H107.493C107.302 64.52 107.155 64.494 107.051 64.442C106.964 64.3727 106.886 64.2773 106.817 64.156C106.695 63.896 106.513 63.6273 106.271 63.35C106.045 63.0553 105.725 62.804 105.309 62.596C104.91 62.388 104.381 62.284 103.723 62.284C102.735 62.284 101.955 62.544 101.383 63.064C100.828 63.584 100.525 64.416 100.473 65.56C100.421 67.0507 100.421 68.5587 100.473 70.084C100.525 71.2973 100.845 72.1727 101.435 72.71C102.024 73.2473 102.804 73.516 103.775 73.516C104.433 73.516 105.014 73.4033 105.517 73.178C106.037 72.9527 106.444 72.606 106.739 72.138C107.033 71.6527 107.181 71.0373 107.181 70.292V69.798H104.737C104.546 69.798 104.381 69.7373 104.243 69.616C104.121 69.4773 104.061 69.3127 104.061 69.122V67.198C104.061 67.0073 104.121 66.8513 104.243 66.73C104.381 66.5913 104.546 66.522 104.737 66.522H111.289C111.479 66.522 111.635 66.5913 111.757 66.73C111.878 66.8513 111.939 67.0073 111.939 67.198V70.162C111.939 71.6527 111.601 72.9267 110.925 73.984C110.249 75.0413 109.287 75.856 108.039 76.428C106.808 76.9827 105.369 77.26 103.723 77.26ZM127.243 77.26C125.509 77.26 124.071 77.0173 122.927 76.532C121.783 76.0293 120.916 75.3793 120.327 74.582C119.737 73.7847 119.425 72.9353 119.391 72.034C119.391 71.8953 119.443 71.774 119.547 71.67C119.668 71.5487 119.807 71.488 119.963 71.488H123.239C123.481 71.488 123.663 71.5313 123.785 71.618C123.923 71.7047 124.045 71.8173 124.149 71.956C124.287 72.216 124.478 72.4673 124.721 72.71C124.981 72.9527 125.31 73.152 125.709 73.308C126.125 73.4467 126.636 73.516 127.243 73.516C128.248 73.516 129.002 73.36 129.505 73.048C130.025 72.736 130.285 72.3113 130.285 71.774C130.285 71.3927 130.146 71.0807 129.869 70.838C129.591 70.578 129.141 70.3527 128.517 70.162C127.91 69.954 127.095 69.746 126.073 69.538C124.755 69.2607 123.629 68.9053 122.693 68.472C121.774 68.0213 121.072 67.4407 120.587 66.73C120.101 66.002 119.859 65.1007 119.859 64.026C119.859 62.9687 120.153 62.024 120.743 61.192C121.349 60.36 122.19 59.71 123.265 59.242C124.339 58.774 125.613 58.54 127.087 58.54C128.283 58.54 129.331 58.696 130.233 59.008C131.151 59.32 131.923 59.736 132.547 60.256C133.171 60.776 133.639 61.3307 133.951 61.92C134.28 62.492 134.453 63.0553 134.471 63.61C134.471 63.7487 134.419 63.8787 134.315 64C134.211 64.104 134.081 64.156 133.925 64.156H130.493C130.302 64.156 130.137 64.1213 129.999 64.052C129.86 63.9827 129.739 63.87 129.635 63.714C129.531 63.3327 129.253 63.0033 128.803 62.726C128.369 62.4313 127.797 62.284 127.087 62.284C126.324 62.284 125.726 62.4227 125.293 62.7C124.877 62.96 124.669 63.3673 124.669 63.922C124.669 64.2687 124.781 64.572 125.007 64.832C125.249 65.092 125.639 65.3173 126.177 65.508C126.731 65.6987 127.485 65.898 128.439 66.106C130.016 66.4007 131.29 66.7733 132.261 67.224C133.231 67.6573 133.942 68.2293 134.393 68.94C134.843 69.6333 135.069 70.5087 135.069 71.566C135.069 72.7447 134.731 73.7673 134.055 74.634C133.396 75.4833 132.477 76.1333 131.299 76.584C130.12 77.0347 128.768 77.26 127.243 77.26ZM145.108 77.26C143.513 77.26 142.126 77 140.948 76.48C139.769 75.96 138.85 75.18 138.192 74.14C137.533 73.0827 137.169 71.7653 137.1 70.188C137.082 69.4427 137.074 68.6973 137.074 67.952C137.074 67.2067 137.082 66.4527 137.1 65.69C137.169 64.13 137.533 62.8213 138.192 61.764C138.868 60.6893 139.795 59.8833 140.974 59.346C142.152 58.8087 143.53 58.54 145.108 58.54C146.668 58.54 148.037 58.8087 149.216 59.346C150.412 59.8833 151.348 60.6893 152.024 61.764C152.7 62.8213 153.064 64.13 153.116 65.69C153.15 66.4527 153.168 67.2067 153.168 67.952C153.168 68.6973 153.15 69.4427 153.116 70.188C153.046 71.7653 152.682 73.0827 152.024 74.14C151.365 75.18 150.446 75.96 149.268 76.48C148.089 77 146.702 77.26 145.108 77.26ZM145.108 73.516C146.026 73.516 146.772 73.2387 147.344 72.684C147.933 72.1293 148.245 71.2453 148.28 70.032C148.314 69.2693 148.332 68.55 148.332 67.874C148.332 67.198 148.314 66.496 148.28 65.768C148.245 64.9533 148.089 64.2947 147.812 63.792C147.552 63.272 147.188 62.8907 146.72 62.648C146.252 62.4053 145.714 62.284 145.108 62.284C144.518 62.284 143.99 62.4053 143.522 62.648C143.054 62.8907 142.681 63.272 142.404 63.792C142.126 64.2947 141.97 64.9533 141.936 65.768C141.918 66.496 141.91 67.198 141.91 67.874C141.91 68.55 141.918 69.2693 141.936 70.032C141.988 71.2453 142.3 72.1293 142.872 72.684C143.444 73.2387 144.189 73.516 145.108 73.516ZM163.617 77.26C162.023 77.26 160.636 77 159.457 76.48C158.279 75.96 157.36 75.18 156.701 74.14C156.043 73.0827 155.679 71.7653 155.609 70.188C155.592 69.4427 155.583 68.6973 155.583 67.952C155.583 67.2067 155.592 66.4527 155.609 65.69C155.679 64.13 156.043 62.8213 156.701 61.764C157.377 60.6893 158.305 59.8833 159.483 59.346C160.662 58.8087 162.04 58.54 163.617 58.54C165.177 58.54 166.547 58.8087 167.725 59.346C168.921 59.8833 169.857 60.6893 170.533 61.764C171.209 62.8213 171.573 64.13 171.625 65.69C171.66 66.4527 171.677 67.2067 171.677 67.952C171.677 68.6973 171.66 69.4427 171.625 70.188C171.556 71.7653 171.192 73.0827 170.533 74.14C169.875 75.18 168.956 75.96 167.777 76.48C166.599 77 165.212 77.26 163.617 77.26ZM163.617 73.516C164.536 73.516 165.281 73.2387 165.853 72.684C166.443 72.1293 166.755 71.2453 166.789 70.032C166.824 69.2693 166.841 68.55 166.841 67.874C166.841 67.198 166.824 66.496 166.789 65.768C166.755 64.9533 166.599 64.2947 166.321 63.792C166.061 63.272 165.697 62.8907 165.229 62.648C164.761 62.4053 164.224 62.284 163.617 62.284C163.028 62.284 162.499 62.4053 162.031 62.648C161.563 62.8907 161.191 63.272 160.913 63.792C160.636 64.2947 160.48 64.9533 160.445 65.768C160.428 66.496 160.419 67.198 160.419 67.874C160.419 68.55 160.428 69.2693 160.445 70.032C160.497 71.2453 160.809 72.1293 161.381 72.684C161.953 73.2387 162.699 73.516 163.617 73.516ZM175.341 77C175.15 77 174.994 76.9393 174.873 76.818C174.752 76.6967 174.691 76.5407 174.691 76.35V59.45C174.691 59.2593 174.752 59.1033 174.873 58.982C174.994 58.8607 175.15 58.8 175.341 58.8H178.097C178.392 58.8 178.6 58.8693 178.721 59.008C178.86 59.1293 178.946 59.2247 178.981 59.294L185.325 69.304V59.45C185.325 59.2593 185.386 59.1033 185.507 58.982C185.628 58.8607 185.784 58.8 185.975 58.8H189.095C189.286 58.8 189.442 58.8607 189.563 58.982C189.684 59.1033 189.745 59.2593 189.745 59.45V76.35C189.745 76.5233 189.684 76.6793 189.563 76.818C189.442 76.9393 189.286 77 189.095 77H186.313C186.036 77 185.828 76.9307 185.689 76.792C185.568 76.6533 185.49 76.558 185.455 76.506L179.111 66.886V76.35C179.111 76.5407 179.05 76.6967 178.929 76.818C178.808 76.9393 178.652 77 178.461 77H175.341Z" fill="#CCCCCC"/>
<path d="M24.568 170.24C23.048 170.24 21.744 169.992 20.656 169.496C19.584 169 18.744 168.272 18.136 167.312C17.544 166.352 17.216 165.16 17.152 163.736C17.136 163.08 17.128 162.376 17.128 161.624C17.128 160.872 17.136 160.152 17.152 159.464C17.216 158.072 17.552 156.896 18.16 155.936C18.768 154.96 19.616 154.224 20.704 153.728C21.792 153.216 23.08 152.96 24.568 152.96C25.624 152.96 26.6 153.096 27.496 153.368C28.392 153.624 29.176 154.008 29.848 154.52C30.52 155.016 31.04 155.624 31.408 156.344C31.792 157.048 31.992 157.848 32.008 158.744C32.024 158.888 31.976 159.008 31.864 159.104C31.768 159.2 31.648 159.248 31.504 159.248H28.264C28.056 159.248 27.896 159.208 27.784 159.128C27.672 159.032 27.576 158.864 27.496 158.624C27.272 157.776 26.904 157.2 26.392 156.896C25.896 156.576 25.28 156.416 24.544 156.416C23.664 156.416 22.968 156.664 22.456 157.16C21.944 157.64 21.664 158.448 21.616 159.584C21.568 160.896 21.568 162.24 21.616 163.616C21.664 164.752 21.944 165.568 22.456 166.064C22.968 166.544 23.664 166.784 24.544 166.784C25.28 166.784 25.904 166.624 26.416 166.304C26.928 165.984 27.288 165.408 27.496 164.576C27.56 164.336 27.648 164.176 27.76 164.096C27.888 164 28.056 163.952 28.264 163.952H31.504C31.648 163.952 31.768 164 31.864 164.096C31.976 164.192 32.024 164.312 32.008 164.456C31.992 165.352 31.792 166.16 31.408 166.88C31.04 167.584 30.52 168.192 29.848 168.704C29.176 169.2 28.392 169.584 27.496 169.856C26.6 170.112 25.624 170.24 24.568 170.24ZM41.3956 170.24C39.9236 170.24 38.6436 170 37.5556 169.52C36.4676 169.04 35.6196 168.32 35.0116 167.36C34.4036 166.384 34.0676 165.168 34.0036 163.712C33.9876 163.024 33.9796 162.336 33.9796 161.648C33.9796 160.96 33.9876 160.264 34.0036 159.56C34.0676 158.12 34.4036 156.912 35.0116 155.936C35.6356 154.944 36.4916 154.2 37.5796 153.704C38.6676 153.208 39.9396 152.96 41.3956 152.96C42.8356 152.96 44.0996 153.208 45.1876 153.704C46.2916 154.2 47.1556 154.944 47.7796 155.936C48.4036 156.912 48.7396 158.12 48.7876 159.56C48.8196 160.264 48.8356 160.96 48.8356 161.648C48.8356 162.336 48.8196 163.024 48.7876 163.712C48.7236 165.168 48.3876 166.384 47.7796 167.36C47.1716 168.32 46.3236 169.04 45.2356 169.52C44.1476 170 42.8676 170.24 41.3956 170.24ZM41.3956 166.784C42.2436 166.784 42.9316 166.528 43.4596 166.016C44.0036 165.504 44.2916 164.688 44.3236 163.568C44.3556 162.864 44.3716 162.2 44.3716 161.576C44.3716 160.952 44.3556 160.304 44.3236 159.632C44.2916 158.88 44.1476 158.272 43.8916 157.808C43.6516 157.328 43.3156 156.976 42.8836 156.752C42.4516 156.528 41.9556 156.416 41.3956 156.416C40.8516 156.416 40.3636 156.528 39.9316 156.752C39.4996 156.976 39.1556 157.328 38.8996 157.808C38.6436 158.272 38.4996 158.88 38.4676 159.632C38.4516 160.304 38.4436 160.952 38.4436 161.576C38.4436 162.2 38.4516 162.864 38.4676 163.568C38.5156 164.688 38.8036 165.504 39.3316 166.016C39.8596 166.528 40.5476 166.784 41.3956 166.784ZM52.2175 170C52.0575 170 51.9135 169.944 51.7855 169.832C51.6735 169.72 51.6175 169.576 51.6175 169.4V153.8C51.6175 153.624 51.6735 153.48 51.7855 153.368C51.9135 153.256 52.0575 153.2 52.2175 153.2H54.8095C55.0655 153.2 55.2575 153.272 55.3855 153.416C55.5295 153.544 55.6175 153.648 55.6495 153.728L59.8735 161.312L64.0975 153.728C64.1455 153.648 64.2255 153.544 64.3375 153.416C64.4655 153.272 64.6655 153.2 64.9375 153.2H67.5055C67.6815 153.2 67.8255 153.256 67.9375 153.368C68.0655 153.48 68.1295 153.624 68.1295 153.8V169.4C68.1295 169.576 68.0655 169.72 67.9375 169.832C67.8255 169.944 67.6815 170 67.5055 170H64.6495C64.4735 170 64.3215 169.944 64.1935 169.832C64.0815 169.72 64.0255 169.576 64.0255 169.4V160.4L61.3135 165.416C61.2495 165.56 61.1535 165.688 61.0255 165.8C60.8975 165.912 60.7215 165.968 60.4975 165.968H59.2495C59.0255 165.968 58.8495 165.912 58.7215 165.8C58.5935 165.688 58.4895 165.56 58.4095 165.416L55.6975 160.4V169.4C55.6975 169.576 55.6415 169.72 55.5295 169.832C55.4175 169.944 55.2735 170 55.0975 170H52.2175ZM72.0691 170C71.8931 170 71.7491 169.944 71.6371 169.832C71.5251 169.72 71.4691 169.576 71.4691 169.4V153.8C71.4691 153.624 71.5251 153.48 71.6371 153.368C71.7491 153.256 71.8931 153.2 72.0691 153.2H75.2851C75.4611 153.2 75.6051 153.256 75.7171 153.368C75.8291 153.48 75.8851 153.624 75.8851 153.8V169.4C75.8851 169.576 75.8291 169.72 75.7171 169.832C75.6051 169.944 75.4611 170 75.2851 170H72.0691ZM79.8503 170C79.6743 170 79.5303 169.944 79.4183 169.832C79.3063 169.72 79.2503 169.576 79.2503 169.4V153.8C79.2503 153.624 79.3063 153.48 79.4183 153.368C79.5303 153.256 79.6743 153.2 79.8503 153.2H82.3943C82.6663 153.2 82.8583 153.264 82.9703 153.392C83.0983 153.504 83.1783 153.592 83.2103 153.656L89.0663 162.896V153.8C89.0663 153.624 89.1223 153.48 89.2343 153.368C89.3463 153.256 89.4903 153.2 89.6663 153.2H92.5463C92.7223 153.2 92.8663 153.256 92.9783 153.368C93.0903 153.48 93.1463 153.624 93.1463 153.8V169.4C93.1463 169.56 93.0903 169.704 92.9783 169.832C92.8663 169.944 92.7223 170 92.5463 170H89.9783C89.7223 170 89.5303 169.936 89.4023 169.808C89.2903 169.68 89.2183 169.592 89.1863 169.544L83.3303 160.664V169.4C83.3303 169.576 83.2743 169.72 83.1623 169.832C83.0503 169.944 82.9063 170 82.7303 170H79.8503ZM103.436 170.24C101.916 170.24 100.604 169.992 99.5003 169.496C98.4123 168.984 97.5643 168.248 96.9563 167.288C96.3643 166.312 96.0363 165.128 95.9723 163.736C95.9563 163.048 95.9483 162.32 95.9483 161.552C95.9483 160.768 95.9563 160.024 95.9723 159.32C96.0363 157.96 96.3723 156.808 96.9803 155.864C97.5883 154.92 98.4443 154.2 99.5483 153.704C100.652 153.208 101.948 152.96 103.436 152.96C104.636 152.96 105.7 153.112 106.628 153.416C107.556 153.704 108.332 154.096 108.956 154.592C109.596 155.088 110.076 155.632 110.396 156.224C110.732 156.816 110.908 157.4 110.924 157.976C110.94 158.12 110.892 158.24 110.78 158.336C110.684 158.432 110.564 158.48 110.42 158.48H106.916C106.74 158.48 106.604 158.456 106.508 158.408C106.428 158.344 106.356 158.256 106.292 158.144C106.18 157.904 106.012 157.656 105.788 157.4C105.58 157.128 105.284 156.896 104.9 156.704C104.532 156.512 104.044 156.416 103.436 156.416C102.524 156.416 101.804 156.656 101.276 157.136C100.764 157.616 100.484 158.384 100.436 159.44C100.388 160.816 100.388 162.208 100.436 163.616C100.484 164.736 100.78 165.544 101.324 166.04C101.868 166.536 102.588 166.784 103.484 166.784C104.092 166.784 104.628 166.68 105.092 166.472C105.572 166.264 105.948 165.944 106.22 165.512C106.492 165.064 106.628 164.496 106.628 163.808V163.352H104.372C104.196 163.352 104.044 163.296 103.916 163.184C103.804 163.056 103.748 162.904 103.748 162.728V160.952C103.748 160.776 103.804 160.632 103.916 160.52C104.044 160.392 104.196 160.328 104.372 160.328H110.42C110.596 160.328 110.74 160.392 110.852 160.52C110.964 160.632 111.02 160.776 111.02 160.952V163.688C111.02 165.064 110.708 166.24 110.084 167.216C109.46 168.192 108.572 168.944 107.42 169.472C106.284 169.984 104.956 170.24 103.436 170.24ZM125.147 170.24C123.547 170.24 122.219 170.016 121.163 169.568C120.107 169.104 119.307 168.504 118.763 167.768C118.219 167.032 117.931 166.248 117.899 165.416C117.899 165.288 117.947 165.176 118.043 165.08C118.155 164.968 118.283 164.912 118.427 164.912H121.451C121.675 164.912 121.843 164.952 121.955 165.032C122.083 165.112 122.195 165.216 122.291 165.344C122.419 165.584 122.595 165.816 122.819 166.04C123.059 166.264 123.363 166.448 123.731 166.592C124.115 166.72 124.587 166.784 125.147 166.784C126.075 166.784 126.771 166.64 127.235 166.352C127.715 166.064 127.955 165.672 127.955 165.176C127.955 164.824 127.827 164.536 127.571 164.312C127.315 164.072 126.899 163.864 126.323 163.688C125.763 163.496 125.011 163.304 124.067 163.112C122.851 162.856 121.811 162.528 120.947 162.128C120.099 161.712 119.451 161.176 119.003 160.52C118.555 159.848 118.331 159.016 118.331 158.024C118.331 157.048 118.603 156.176 119.147 155.408C119.707 154.64 120.483 154.04 121.475 153.608C122.467 153.176 123.643 152.96 125.003 152.96C126.107 152.96 127.075 153.104 127.907 153.392C128.755 153.68 129.467 154.064 130.043 154.544C130.619 155.024 131.051 155.536 131.339 156.08C131.643 156.608 131.803 157.128 131.819 157.64C131.819 157.768 131.771 157.888 131.675 158C131.579 158.096 131.459 158.144 131.315 158.144H128.147C127.971 158.144 127.819 158.112 127.691 158.048C127.563 157.984 127.451 157.88 127.355 157.736C127.259 157.384 127.003 157.08 126.587 156.824C126.187 156.552 125.659 156.416 125.003 156.416C124.299 156.416 123.747 156.544 123.347 156.8C122.963 157.04 122.771 157.416 122.771 157.928C122.771 158.248 122.875 158.528 123.083 158.768C123.307 159.008 123.667 159.216 124.163 159.392C124.675 159.568 125.371 159.752 126.251 159.944C127.707 160.216 128.883 160.56 129.779 160.976C130.675 161.376 131.331 161.904 131.747 162.56C132.163 163.2 132.371 164.008 132.371 164.984C132.371 166.072 132.059 167.016 131.435 167.816C130.827 168.6 129.979 169.2 128.891 169.616C127.803 170.032 126.555 170.24 125.147 170.24ZM141.638 170.24C140.166 170.24 138.886 170 137.798 169.52C136.71 169.04 135.862 168.32 135.254 167.36C134.646 166.384 134.31 165.168 134.246 163.712C134.23 163.024 134.222 162.336 134.222 161.648C134.222 160.96 134.23 160.264 134.246 159.56C134.31 158.12 134.646 156.912 135.254 155.936C135.878 154.944 136.734 154.2 137.822 153.704C138.91 153.208 140.182 152.96 141.638 152.96C143.078 152.96 144.342 153.208 145.43 153.704C146.534 154.2 147.398 154.944 148.022 155.936C148.646 156.912 148.982 158.12 149.03 159.56C149.062 160.264 149.078 160.96 149.078 161.648C149.078 162.336 149.062 163.024 149.03 163.712C148.966 165.168 148.63 166.384 148.022 167.36C147.414 168.32 146.566 169.04 145.478 169.52C144.39 170 143.11 170.24 141.638 170.24ZM141.638 166.784C142.486 166.784 143.174 166.528 143.702 166.016C144.246 165.504 144.534 164.688 144.566 163.568C144.598 162.864 144.614 162.2 144.614 161.576C144.614 160.952 144.598 160.304 144.566 159.632C144.534 158.88 144.39 158.272 144.134 157.808C143.894 157.328 143.558 156.976 143.126 156.752C142.694 156.528 142.198 156.416 141.638 156.416C141.094 156.416 140.606 156.528 140.174 156.752C139.742 156.976 139.398 157.328 139.142 157.808C138.886 158.272 138.742 158.88 138.71 159.632C138.694 160.304 138.686 160.952 138.686 161.576C138.686 162.2 138.694 162.864 138.71 163.568C138.758 164.688 139.046 165.504 139.574 166.016C140.102 166.528 140.79 166.784 141.638 166.784ZM158.724 170.24C157.252 170.24 155.972 170 154.884 169.52C153.796 169.04 152.948 168.32 152.34 167.36C151.732 166.384 151.396 165.168 151.332 163.712C151.316 163.024 151.308 162.336 151.308 161.648C151.308 160.96 151.316 160.264 151.332 159.56C151.396 158.12 151.732 156.912 152.34 155.936C152.964 154.944 153.82 154.2 154.908 153.704C155.996 153.208 157.268 152.96 158.724 152.96C160.164 152.96 161.428 153.208 162.516 153.704C163.62 154.2 164.484 154.944 165.108 155.936C165.732 156.912 166.068 158.12 166.116 159.56C166.148 160.264 166.164 160.96 166.164 161.648C166.164 162.336 166.148 163.024 166.116 163.712C166.052 165.168 165.716 166.384 165.108 167.36C164.5 168.32 163.652 169.04 162.564 169.52C161.476 170 160.196 170.24 158.724 170.24ZM158.724 166.784C159.572 166.784 160.26 166.528 160.788 166.016C161.332 165.504 161.62 164.688 161.652 163.568C161.684 162.864 161.7 162.2 161.7 161.576C161.7 160.952 161.684 160.304 161.652 159.632C161.62 158.88 161.476 158.272 161.22 157.808C160.98 157.328 160.644 156.976 160.212 156.752C159.78 156.528 159.284 156.416 158.724 156.416C158.18 156.416 157.692 156.528 157.26 156.752C156.828 156.976 156.484 157.328 156.228 157.808C155.972 158.272 155.828 158.88 155.796 159.632C155.78 160.304 155.772 160.952 155.772 161.576C155.772 162.2 155.78 162.864 155.796 163.568C155.844 164.688 156.132 165.504 156.66 166.016C157.188 166.528 157.876 166.784 158.724 166.784ZM169.546 170C169.37 170 169.226 169.944 169.114 169.832C169.002 169.72 168.946 169.576 168.946 169.4V153.8C168.946 153.624 169.002 153.48 169.114 153.368C169.226 153.256 169.37 153.2 169.546 153.2H172.09C172.362 153.2 172.554 153.264 172.666 153.392C172.794 153.504 172.874 153.592 172.906 153.656L178.762 162.896V153.8C178.762 153.624 178.818 153.48 178.93 153.368C179.042 153.256 179.186 153.2 179.362 153.2H182.242C182.418 153.2 182.562 153.256 182.674 153.368C182.786 153.48 182.842 153.624 182.842 153.8V169.4C182.842 169.56 182.786 169.704 182.674 169.832C182.562 169.944 182.418 170 182.242 170H179.674C179.418 170 179.226 169.936 179.098 169.808C178.986 169.68 178.914 169.592 178.882 169.544L173.026 160.664V169.4C173.026 169.576 172.97 169.72 172.858 169.832C172.746 169.944 172.602 170 172.426 170H169.546Z" fill="#999999"/>
<path d="M30.854 197.22C29.4607 197.22 28.2653 196.993 27.268 196.538C26.2853 196.083 25.5153 195.416 24.958 194.536C24.4153 193.656 24.1147 192.563 24.056 191.258C24.0413 190.657 24.034 190.011 24.034 189.322C24.034 188.633 24.0413 187.973 24.056 187.342C24.1147 186.066 24.4227 184.988 24.98 184.108C25.5373 183.213 26.3147 182.539 27.312 182.084C28.3093 181.615 29.49 181.38 30.854 181.38C31.822 181.38 32.7167 181.505 33.538 181.754C34.3593 181.989 35.078 182.341 35.694 182.81C36.31 183.265 36.7867 183.822 37.124 184.482C37.476 185.127 37.6593 185.861 37.674 186.682C37.6887 186.814 37.6447 186.924 37.542 187.012C37.454 187.1 37.344 187.144 37.212 187.144H34.242C34.0513 187.144 33.9047 187.107 33.802 187.034C33.6993 186.946 33.6113 186.792 33.538 186.572C33.3327 185.795 32.9953 185.267 32.526 184.988C32.0713 184.695 31.5067 184.548 30.832 184.548C30.0253 184.548 29.3873 184.775 28.918 185.23C28.4487 185.67 28.192 186.411 28.148 187.452C28.104 188.655 28.104 189.887 28.148 191.148C28.192 192.189 28.4487 192.937 28.918 193.392C29.3873 193.832 30.0253 194.052 30.832 194.052C31.5067 194.052 32.0787 193.905 32.548 193.612C33.0173 193.319 33.3473 192.791 33.538 192.028C33.5967 191.808 33.6773 191.661 33.78 191.588C33.8973 191.5 34.0513 191.456 34.242 191.456H37.212C37.344 191.456 37.454 191.5 37.542 191.588C37.6447 191.676 37.6887 191.786 37.674 191.918C37.6593 192.739 37.476 193.48 37.124 194.14C36.7867 194.785 36.31 195.343 35.694 195.812C35.078 196.267 34.3593 196.619 33.538 196.868C32.7167 197.103 31.822 197.22 30.854 197.22ZM46.2793 197.22C44.9299 197.22 43.7566 197 42.7593 196.56C41.7619 196.12 40.9846 195.46 40.4273 194.58C39.8699 193.685 39.5619 192.571 39.5033 191.236C39.4886 190.605 39.4813 189.975 39.4813 189.344C39.4813 188.713 39.4886 188.075 39.5033 187.43C39.5619 186.11 39.8699 185.003 40.4273 184.108C40.9993 183.199 41.7839 182.517 42.7813 182.062C43.7786 181.607 44.9446 181.38 46.2793 181.38C47.5993 181.38 48.7579 181.607 49.7553 182.062C50.7673 182.517 51.5593 183.199 52.1313 184.108C52.7033 185.003 53.0113 186.11 53.0553 187.43C53.0846 188.075 53.0993 188.713 53.0993 189.344C53.0993 189.975 53.0846 190.605 53.0553 191.236C52.9966 192.571 52.6886 193.685 52.1313 194.58C51.5739 195.46 50.7966 196.12 49.7993 196.56C48.8019 197 47.6286 197.22 46.2793 197.22ZM46.2793 194.052C47.0566 194.052 47.6873 193.817 48.1713 193.348C48.6699 192.879 48.9339 192.131 48.9633 191.104C48.9926 190.459 49.0073 189.85 49.0073 189.278C49.0073 188.706 48.9926 188.112 48.9633 187.496C48.9339 186.807 48.8019 186.249 48.5673 185.824C48.3473 185.384 48.0393 185.061 47.6433 184.856C47.2473 184.651 46.7926 184.548 46.2793 184.548C45.7806 184.548 45.3333 184.651 44.9373 184.856C44.5413 185.061 44.2259 185.384 43.9913 185.824C43.7566 186.249 43.6246 186.807 43.5953 187.496C43.5806 188.112 43.5733 188.706 43.5733 189.278C43.5733 189.85 43.5806 190.459 43.5953 191.104C43.6393 192.131 43.9033 192.879 44.3873 193.348C44.8713 193.817 45.5019 194.052 46.2793 194.052ZM56.1994 197C56.0527 197 55.9207 196.949 55.8034 196.846C55.7007 196.743 55.6494 196.611 55.6494 196.45V182.15C55.6494 181.989 55.7007 181.857 55.8034 181.754C55.9207 181.651 56.0527 181.6 56.1994 181.6H58.5754C58.81 181.6 58.986 181.666 59.1034 181.798C59.2354 181.915 59.316 182.011 59.3454 182.084L63.2174 189.036L67.0894 182.084C67.1334 182.011 67.2067 181.915 67.3094 181.798C67.4267 181.666 67.61 181.6 67.8594 181.6H70.2134C70.3747 181.6 70.5067 181.651 70.6094 181.754C70.7267 181.857 70.7854 181.989 70.7854 182.15V196.45C70.7854 196.611 70.7267 196.743 70.6094 196.846C70.5067 196.949 70.3747 197 70.2134 197H67.5954C67.434 197 67.2947 196.949 67.1774 196.846C67.0747 196.743 67.0234 196.611 67.0234 196.45V188.2L64.5374 192.798C64.4787 192.93 64.3907 193.047 64.2734 193.15C64.156 193.253 63.9947 193.304 63.7894 193.304H62.6454C62.44 193.304 62.2787 193.253 62.1614 193.15C62.044 193.047 61.9487 192.93 61.8754 192.798L59.3894 188.2V196.45C59.3894 196.611 59.338 196.743 59.2354 196.846C59.1327 196.949 59.0007 197 58.8394 197H56.1994ZM74.3966 197C74.2353 197 74.1033 196.949 74.0006 196.846C73.898 196.743 73.8466 196.611 73.8466 196.45V182.15C73.8466 181.989 73.898 181.857 74.0006 181.754C74.1033 181.651 74.2353 181.6 74.3966 181.6H77.3446C77.506 181.6 77.638 181.651 77.7406 181.754C77.8433 181.857 77.8946 181.989 77.8946 182.15V196.45C77.8946 196.611 77.8433 196.743 77.7406 196.846C77.638 196.949 77.506 197 77.3446 197H74.3966ZM81.5295 197C81.3681 197 81.2361 196.949 81.1335 196.846C81.0308 196.743 80.9795 196.611 80.9795 196.45V182.15C80.9795 181.989 81.0308 181.857 81.1335 181.754C81.2361 181.651 81.3681 181.6 81.5295 181.6H83.8615C84.1108 181.6 84.2868 181.659 84.3895 181.776C84.5068 181.879 84.5801 181.959 84.6095 182.018L89.9775 190.488V182.15C89.9775 181.989 90.0288 181.857 90.1315 181.754C90.2341 181.651 90.3661 181.6 90.5275 181.6H93.1675C93.3288 181.6 93.4608 181.651 93.5635 181.754C93.6661 181.857 93.7175 181.989 93.7175 182.15V196.45C93.7175 196.597 93.6661 196.729 93.5635 196.846C93.4608 196.949 93.3288 197 93.1675 197H90.8135C90.5788 197 90.4028 196.941 90.2855 196.824C90.1828 196.707 90.1168 196.626 90.0875 196.582L84.7195 188.442V196.45C84.7195 196.611 84.6681 196.743 84.5655 196.846C84.4628 196.949 84.3308 197 84.1695 197H81.5295ZM103.15 197.22C101.757 197.22 100.554 196.993 99.542 196.538C98.5446 196.069 97.7673 195.394 97.21 194.514C96.6673 193.619 96.3666 192.534 96.308 191.258C96.2933 190.627 96.286 189.96 96.286 189.256C96.286 188.537 96.2933 187.855 96.308 187.21C96.3666 185.963 96.6746 184.907 97.232 184.042C97.7893 183.177 98.574 182.517 99.586 182.062C100.598 181.607 101.786 181.38 103.15 181.38C104.25 181.38 105.225 181.519 106.076 181.798C106.927 182.062 107.638 182.421 108.21 182.876C108.797 183.331 109.237 183.829 109.53 184.372C109.838 184.915 109.999 185.45 110.014 185.978C110.029 186.11 109.985 186.22 109.882 186.308C109.794 186.396 109.684 186.44 109.552 186.44H106.34C106.179 186.44 106.054 186.418 105.966 186.374C105.893 186.315 105.827 186.235 105.768 186.132C105.665 185.912 105.511 185.685 105.306 185.45C105.115 185.201 104.844 184.988 104.492 184.812C104.155 184.636 103.707 184.548 103.15 184.548C102.314 184.548 101.654 184.768 101.17 185.208C100.701 185.648 100.444 186.352 100.4 187.32C100.356 188.581 100.356 189.857 100.4 191.148C100.444 192.175 100.715 192.915 101.214 193.37C101.713 193.825 102.373 194.052 103.194 194.052C103.751 194.052 104.243 193.957 104.668 193.766C105.108 193.575 105.453 193.282 105.702 192.886C105.951 192.475 106.076 191.955 106.076 191.324V190.906H104.008C103.847 190.906 103.707 190.855 103.59 190.752C103.487 190.635 103.436 190.495 103.436 190.334V188.706C103.436 188.545 103.487 188.413 103.59 188.31C103.707 188.193 103.847 188.134 104.008 188.134H109.552C109.713 188.134 109.845 188.193 109.948 188.31C110.051 188.413 110.102 188.545 110.102 188.706V191.214C110.102 192.475 109.816 193.553 109.244 194.448C108.672 195.343 107.858 196.032 106.802 196.516C105.761 196.985 104.543 197.22 103.15 197.22ZM123.052 197.22C121.585 197.22 120.368 197.015 119.4 196.604C118.432 196.179 117.698 195.629 117.2 194.954C116.701 194.279 116.437 193.561 116.408 192.798C116.408 192.681 116.452 192.578 116.54 192.49C116.642 192.387 116.76 192.336 116.892 192.336H119.664C119.869 192.336 120.023 192.373 120.126 192.446C120.243 192.519 120.346 192.615 120.434 192.732C120.551 192.952 120.712 193.165 120.918 193.37C121.138 193.575 121.416 193.744 121.754 193.876C122.106 193.993 122.538 194.052 123.052 194.052C123.902 194.052 124.54 193.92 124.966 193.656C125.406 193.392 125.626 193.033 125.626 192.578C125.626 192.255 125.508 191.991 125.274 191.786C125.039 191.566 124.658 191.375 124.13 191.214C123.616 191.038 122.927 190.862 122.062 190.686C120.947 190.451 119.994 190.151 119.202 189.784C118.424 189.403 117.83 188.911 117.42 188.31C117.009 187.694 116.804 186.931 116.804 186.022C116.804 185.127 117.053 184.328 117.552 183.624C118.065 182.92 118.776 182.37 119.686 181.974C120.595 181.578 121.673 181.38 122.92 181.38C123.932 181.38 124.819 181.512 125.582 181.776C126.359 182.04 127.012 182.392 127.54 182.832C128.068 183.272 128.464 183.741 128.728 184.24C129.006 184.724 129.153 185.201 129.168 185.67C129.168 185.787 129.124 185.897 129.036 186C128.948 186.088 128.838 186.132 128.706 186.132H125.802C125.64 186.132 125.501 186.103 125.384 186.044C125.266 185.985 125.164 185.89 125.076 185.758C124.988 185.435 124.753 185.157 124.372 184.922C124.005 184.673 123.521 184.548 122.92 184.548C122.274 184.548 121.768 184.665 121.402 184.9C121.05 185.12 120.874 185.465 120.874 185.934C120.874 186.227 120.969 186.484 121.16 186.704C121.365 186.924 121.695 187.115 122.15 187.276C122.619 187.437 123.257 187.606 124.064 187.782C125.398 188.031 126.476 188.347 127.298 188.728C128.119 189.095 128.72 189.579 129.102 190.18C129.483 190.767 129.674 191.507 129.674 192.402C129.674 193.399 129.388 194.265 128.816 194.998C128.258 195.717 127.481 196.267 126.484 196.648C125.486 197.029 124.342 197.22 123.052 197.22ZM138.168 197.22C136.819 197.22 135.645 197 134.648 196.56C133.651 196.12 132.873 195.46 132.316 194.58C131.759 193.685 131.451 192.571 131.392 191.236C131.377 190.605 131.37 189.975 131.37 189.344C131.37 188.713 131.377 188.075 131.392 187.43C131.451 186.11 131.759 185.003 132.316 184.108C132.888 183.199 133.673 182.517 134.67 182.062C135.667 181.607 136.833 181.38 138.168 181.38C139.488 181.38 140.647 181.607 141.644 182.062C142.656 182.517 143.448 183.199 144.02 184.108C144.592 185.003 144.9 186.11 144.944 187.43C144.973 188.075 144.988 188.713 144.988 189.344C144.988 189.975 144.973 190.605 144.944 191.236C144.885 192.571 144.577 193.685 144.02 194.58C143.463 195.46 142.685 196.12 141.688 196.56C140.691 197 139.517 197.22 138.168 197.22ZM138.168 194.052C138.945 194.052 139.576 193.817 140.06 193.348C140.559 192.879 140.823 192.131 140.852 191.104C140.881 190.459 140.896 189.85 140.896 189.278C140.896 188.706 140.881 188.112 140.852 187.496C140.823 186.807 140.691 186.249 140.456 185.824C140.236 185.384 139.928 185.061 139.532 184.856C139.136 184.651 138.681 184.548 138.168 184.548C137.669 184.548 137.222 184.651 136.826 184.856C136.43 185.061 136.115 185.384 135.88 185.824C135.645 186.249 135.513 186.807 135.484 187.496C135.469 188.112 135.462 188.706 135.462 189.278C135.462 189.85 135.469 190.459 135.484 191.104C135.528 192.131 135.792 192.879 136.276 193.348C136.76 193.817 137.391 194.052 138.168 194.052ZM153.83 197.22C152.481 197.22 151.307 197 150.31 196.56C149.313 196.12 148.535 195.46 147.978 194.58C147.421 193.685 147.113 192.571 147.054 191.236C147.039 190.605 147.032 189.975 147.032 189.344C147.032 188.713 147.039 188.075 147.054 187.43C147.113 186.11 147.421 185.003 147.978 184.108C148.55 183.199 149.335 182.517 150.332 182.062C151.329 181.607 152.495 181.38 153.83 181.38C155.15 181.38 156.309 181.607 157.306 182.062C158.318 182.517 159.11 183.199 159.682 184.108C160.254 185.003 160.562 186.11 160.606 187.43C160.635 188.075 160.65 188.713 160.65 189.344C160.65 189.975 160.635 190.605 160.606 191.236C160.547 192.571 160.239 193.685 159.682 194.58C159.125 195.46 158.347 196.12 157.35 196.56C156.353 197 155.179 197.22 153.83 197.22ZM153.83 194.052C154.607 194.052 155.238 193.817 155.722 193.348C156.221 192.879 156.485 192.131 156.514 191.104C156.543 190.459 156.558 189.85 156.558 189.278C156.558 188.706 156.543 188.112 156.514 187.496C156.485 186.807 156.353 186.249 156.118 185.824C155.898 185.384 155.59 185.061 155.194 184.856C154.798 184.651 154.343 184.548 153.83 184.548C153.331 184.548 152.884 184.651 152.488 184.856C152.092 185.061 151.777 185.384 151.542 185.824C151.307 186.249 151.175 186.807 151.146 187.496C151.131 188.112 151.124 188.706 151.124 189.278C151.124 189.85 151.131 190.459 151.146 191.104C151.19 192.131 151.454 192.879 151.938 193.348C152.422 193.817 153.053 194.052 153.83 194.052ZM163.75 197C163.589 197 163.457 196.949 163.354 196.846C163.251 196.743 163.2 196.611 163.2 196.45V182.15C163.2 181.989 163.251 181.857 163.354 181.754C163.457 181.651 163.589 181.6 163.75 181.6H166.082C166.331 181.6 166.507 181.659 166.61 181.776C166.727 181.879 166.801 181.959 166.83 182.018L172.198 190.488V182.15C172.198 181.989 172.249 181.857 172.352 181.754C172.455 181.651 172.587 181.6 172.748 181.6H175.388C175.549 181.6 175.681 181.651 175.784 181.754C175.887 181.857 175.938 181.989 175.938 182.15V196.45C175.938 196.597 175.887 196.729 175.784 196.846C175.681 196.949 175.549 197 175.388 197H173.034C172.799 197 172.623 196.941 172.506 196.824C172.403 196.707 172.337 196.626 172.308 196.582L166.94 188.442V196.45C166.94 196.611 166.889 196.743 166.786 196.846C166.683 196.949 166.551 197 166.39 197H163.75Z" fill="#666666"/>
<path d="M24.568 47.24C23.048 47.24 21.744 46.992 20.656 46.496C19.584 46 18.744 45.272 18.136 44.312C17.544 43.352 17.216 42.16 17.152 40.736C17.136 40.08 17.128 39.376 17.128 38.624C17.128 37.872 17.136 37.152 17.152 36.464C17.216 35.072 17.552 33.896 18.16 32.936C18.768 31.96 19.616 31.224 20.704 30.728C21.792 30.216 23.08 29.96 24.568 29.96C25.624 29.96 26.6 30.096 27.496 30.368C28.392 30.624 29.176 31.008 29.848 31.52C30.52 32.016 31.04 32.624 31.408 33.344C31.792 34.048 31.992 34.848 32.008 35.744C32.024 35.888 31.976 36.008 31.864 36.104C31.768 36.2 31.648 36.248 31.504 36.248H28.264C28.056 36.248 27.896 36.208 27.784 36.128C27.672 36.032 27.576 35.864 27.496 35.624C27.272 34.776 26.904 34.2 26.392 33.896C25.896 33.576 25.28 33.416 24.544 33.416C23.664 33.416 22.968 33.664 22.456 34.16C21.944 34.64 21.664 35.448 21.616 36.584C21.568 37.896 21.568 39.24 21.616 40.616C21.664 41.752 21.944 42.568 22.456 43.064C22.968 43.544 23.664 43.784 24.544 43.784C25.28 43.784 25.904 43.624 26.416 43.304C26.928 42.984 27.288 42.408 27.496 41.576C27.56 41.336 27.648 41.176 27.76 41.096C27.888 41 28.056 40.952 28.264 40.952H31.504C31.648 40.952 31.768 41 31.864 41.096C31.976 41.192 32.024 41.312 32.008 41.456C31.992 42.352 31.792 43.16 31.408 43.88C31.04 44.584 30.52 45.192 29.848 45.704C29.176 46.2 28.392 46.584 27.496 46.856C26.6 47.112 25.624 47.24 24.568 47.24ZM41.3956 47.24C39.9236 47.24 38.6436 47 37.5556 46.52C36.4676 46.04 35.6196 45.32 35.0116 44.36C34.4036 43.384 34.0676 42.168 34.0036 40.712C33.9876 40.024 33.9796 39.336 33.9796 38.648C33.9796 37.96 33.9876 37.264 34.0036 36.56C34.0676 35.12 34.4036 33.912 35.0116 32.936C35.6356 31.944 36.4916 31.2 37.5796 30.704C38.6676 30.208 39.9396 29.96 41.3956 29.96C42.8356 29.96 44.0996 30.208 45.1876 30.704C46.2916 31.2 47.1556 31.944 47.7796 32.936C48.4036 33.912 48.7396 35.12 48.7876 36.56C48.8196 37.264 48.8356 37.96 48.8356 38.648C48.8356 39.336 48.8196 40.024 48.7876 40.712C48.7236 42.168 48.3876 43.384 47.7796 44.36C47.1716 45.32 46.3236 46.04 45.2356 46.52C44.1476 47 42.8676 47.24 41.3956 47.24ZM41.3956 43.784C42.2436 43.784 42.9316 43.528 43.4596 43.016C44.0036 42.504 44.2916 41.688 44.3236 40.568C44.3556 39.864 44.3716 39.2 44.3716 38.576C44.3716 37.952 44.3556 37.304 44.3236 36.632C44.2916 35.88 44.1476 35.272 43.8916 34.808C43.6516 34.328 43.3156 33.976 42.8836 33.752C42.4516 33.528 41.9556 33.416 41.3956 33.416C40.8516 33.416 40.3636 33.528 39.9316 33.752C39.4996 33.976 39.1556 34.328 38.8996 34.808C38.6436 35.272 38.4996 35.88 38.4676 36.632C38.4516 37.304 38.4436 37.952 38.4436 38.576C38.4436 39.2 38.4516 39.864 38.4676 40.568C38.5156 41.688 38.8036 42.504 39.3316 43.016C39.8596 43.528 40.5476 43.784 41.3956 43.784ZM52.2175 47C52.0575 47 51.9135 46.944 51.7855 46.832C51.6735 46.72 51.6175 46.576 51.6175 46.4V30.8C51.6175 30.624 51.6735 30.48 51.7855 30.368C51.9135 30.256 52.0575 30.2 52.2175 30.2H54.8095C55.0655 30.2 55.2575 30.272 55.3855 30.416C55.5295 30.544 55.6175 30.648 55.6495 30.728L59.8735 38.312L64.0975 30.728C64.1455 30.648 64.2255 30.544 64.3375 30.416C64.4655 30.272 64.6655 30.2 64.9375 30.2H67.5055C67.6815 30.2 67.8255 30.256 67.9375 30.368C68.0655 30.48 68.1295 30.624 68.1295 30.8V46.4C68.1295 46.576 68.0655 46.72 67.9375 46.832C67.8255 46.944 67.6815 47 67.5055 47H64.6495C64.4735 47 64.3215 46.944 64.1935 46.832C64.0815 46.72 64.0255 46.576 64.0255 46.4V37.4L61.3135 42.416C61.2495 42.56 61.1535 42.688 61.0255 42.8C60.8975 42.912 60.7215 42.968 60.4975 42.968H59.2495C59.0255 42.968 58.8495 42.912 58.7215 42.8C58.5935 42.688 58.4895 42.56 58.4095 42.416L55.6975 37.4V46.4C55.6975 46.576 55.6415 46.72 55.5295 46.832C55.4175 46.944 55.2735 47 55.0975 47H52.2175ZM72.0691 47C71.8931 47 71.7491 46.944 71.6371 46.832C71.5251 46.72 71.4691 46.576 71.4691 46.4V30.8C71.4691 30.624 71.5251 30.48 71.6371 30.368C71.7491 30.256 71.8931 30.2 72.0691 30.2H75.2851C75.4611 30.2 75.6051 30.256 75.7171 30.368C75.8291 30.48 75.8851 30.624 75.8851 30.8V46.4C75.8851 46.576 75.8291 46.72 75.7171 46.832C75.6051 46.944 75.4611 47 75.2851 47H72.0691ZM79.8503 47C79.6743 47 79.5303 46.944 79.4183 46.832C79.3063 46.72 79.2503 46.576 79.2503 46.4V30.8C79.2503 30.624 79.3063 30.48 79.4183 30.368C79.5303 30.256 79.6743 30.2 79.8503 30.2H82.3943C82.6663 30.2 82.8583 30.264 82.9703 30.392C83.0983 30.504 83.1783 30.592 83.2103 30.656L89.0663 39.896V30.8C89.0663 30.624 89.1223 30.48 89.2343 30.368C89.3463 30.256 89.4903 30.2 89.6663 30.2H92.5463C92.7223 30.2 92.8663 30.256 92.9783 30.368C93.0903 30.48 93.1463 30.624 93.1463 30.8V46.4C93.1463 46.56 93.0903 46.704 92.9783 46.832C92.8663 46.944 92.7223 47 92.5463 47H89.9783C89.7223 47 89.5303 46.936 89.4023 46.808C89.2903 46.68 89.2183 46.592 89.1863 46.544L83.3303 37.664V46.4C83.3303 46.576 83.2743 46.72 83.1623 46.832C83.0503 46.944 82.9063 47 82.7303 47H79.8503ZM103.436 47.24C101.916 47.24 100.604 46.992 99.5003 46.496C98.4123 45.984 97.5643 45.248 96.9563 44.288C96.3643 43.312 96.0363 42.128 95.9723 40.736C95.9563 40.048 95.9483 39.32 95.9483 38.552C95.9483 37.768 95.9563 37.024 95.9723 36.32C96.0363 34.96 96.3723 33.808 96.9803 32.864C97.5883 31.92 98.4443 31.2 99.5483 30.704C100.652 30.208 101.948 29.96 103.436 29.96C104.636 29.96 105.7 30.112 106.628 30.416C107.556 30.704 108.332 31.096 108.956 31.592C109.596 32.088 110.076 32.632 110.396 33.224C110.732 33.816 110.908 34.4 110.924 34.976C110.94 35.12 110.892 35.24 110.78 35.336C110.684 35.432 110.564 35.48 110.42 35.48H106.916C106.74 35.48 106.604 35.456 106.508 35.408C106.428 35.344 106.356 35.256 106.292 35.144C106.18 34.904 106.012 34.656 105.788 34.4C105.58 34.128 105.284 33.896 104.9 33.704C104.532 33.512 104.044 33.416 103.436 33.416C102.524 33.416 101.804 33.656 101.276 34.136C100.764 34.616 100.484 35.384 100.436 36.44C100.388 37.816 100.388 39.208 100.436 40.616C100.484 41.736 100.78 42.544 101.324 43.04C101.868 43.536 102.588 43.784 103.484 43.784C104.092 43.784 104.628 43.68 105.092 43.472C105.572 43.264 105.948 42.944 106.22 42.512C106.492 42.064 106.628 41.496 106.628 40.808V40.352H104.372C104.196 40.352 104.044 40.296 103.916 40.184C103.804 40.056 103.748 39.904 103.748 39.728V37.952C103.748 37.776 103.804 37.632 103.916 37.52C104.044 37.392 104.196 37.328 104.372 37.328H110.42C110.596 37.328 110.74 37.392 110.852 37.52C110.964 37.632 111.02 37.776 111.02 37.952V40.688C111.02 42.064 110.708 43.24 110.084 44.216C109.46 45.192 108.572 45.944 107.42 46.472C106.284 46.984 104.956 47.24 103.436 47.24ZM125.147 47.24C123.547 47.24 122.219 47.016 121.163 46.568C120.107 46.104 119.307 45.504 118.763 44.768C118.219 44.032 117.931 43.248 117.899 42.416C117.899 42.288 117.947 42.176 118.043 42.08C118.155 41.968 118.283 41.912 118.427 41.912H121.451C121.675 41.912 121.843 41.952 121.955 42.032C122.083 42.112 122.195 42.216 122.291 42.344C122.419 42.584 122.595 42.816 122.819 43.04C123.059 43.264 123.363 43.448 123.731 43.592C124.115 43.72 124.587 43.784 125.147 43.784C126.075 43.784 126.771 43.64 127.235 43.352C127.715 43.064 127.955 42.672 127.955 42.176C127.955 41.824 127.827 41.536 127.571 41.312C127.315 41.072 126.899 40.864 126.323 40.688C125.763 40.496 125.011 40.304 124.067 40.112C122.851 39.856 121.811 39.528 120.947 39.128C120.099 38.712 119.451 38.176 119.003 37.52C118.555 36.848 118.331 36.016 118.331 35.024C118.331 34.048 118.603 33.176 119.147 32.408C119.707 31.64 120.483 31.04 121.475 30.608C122.467 30.176 123.643 29.96 125.003 29.96C126.107 29.96 127.075 30.104 127.907 30.392C128.755 30.68 129.467 31.064 130.043 31.544C130.619 32.024 131.051 32.536 131.339 33.08C131.643 33.608 131.803 34.128 131.819 34.64C131.819 34.768 131.771 34.888 131.675 35C131.579 35.096 131.459 35.144 131.315 35.144H128.147C127.971 35.144 127.819 35.112 127.691 35.048C127.563 34.984 127.451 34.88 127.355 34.736C127.259 34.384 127.003 34.08 126.587 33.824C126.187 33.552 125.659 33.416 125.003 33.416C124.299 33.416 123.747 33.544 123.347 33.8C122.963 34.04 122.771 34.416 122.771 34.928C122.771 35.248 122.875 35.528 123.083 35.768C123.307 36.008 123.667 36.216 124.163 36.392C124.675 36.568 125.371 36.752 126.251 36.944C127.707 37.216 128.883 37.56 129.779 37.976C130.675 38.376 131.331 38.904 131.747 39.56C132.163 40.2 132.371 41.008 132.371 41.984C132.371 43.072 132.059 44.016 131.435 44.816C130.827 45.6 129.979 46.2 128.891 46.616C127.803 47.032 126.555 47.24 125.147 47.24ZM141.638 47.24C140.166 47.24 138.886 47 137.798 46.52C136.71 46.04 135.862 45.32 135.254 44.36C134.646 43.384 134.31 42.168 134.246 40.712C134.23 40.024 134.222 39.336 134.222 38.648C134.222 37.96 134.23 37.264 134.246 36.56C134.31 35.12 134.646 33.912 135.254 32.936C135.878 31.944 136.734 31.2 137.822 30.704C138.91 30.208 140.182 29.96 141.638 29.96C143.078 29.96 144.342 30.208 145.43 30.704C146.534 31.2 147.398 31.944 148.022 32.936C148.646 33.912 148.982 35.12 149.03 36.56C149.062 37.264 149.078 37.96 149.078 38.648C149.078 39.336 149.062 40.024 149.03 40.712C148.966 42.168 148.63 43.384 148.022 44.36C147.414 45.32 146.566 46.04 145.478 46.52C144.39 47 143.11 47.24 141.638 47.24ZM141.638 43.784C142.486 43.784 143.174 43.528 143.702 43.016C144.246 42.504 144.534 41.688 144.566 40.568C144.598 39.864 144.614 39.2 144.614 38.576C144.614 37.952 144.598 37.304 144.566 36.632C144.534 35.88 144.39 35.272 144.134 34.808C143.894 34.328 143.558 33.976 143.126 33.752C142.694 33.528 142.198 33.416 141.638 33.416C141.094 33.416 140.606 33.528 140.174 33.752C139.742 33.976 139.398 34.328 139.142 34.808C138.886 35.272 138.742 35.88 138.71 36.632C138.694 37.304 138.686 37.952 138.686 38.576C138.686 39.2 138.694 39.864 138.71 40.568C138.758 41.688 139.046 42.504 139.574 43.016C140.102 43.528 140.79 43.784 141.638 43.784ZM158.724 47.24C157.252 47.24 155.972 47 154.884 46.52C153.796 46.04 152.948 45.32 152.34 44.36C151.732 43.384 151.396 42.168 151.332 40.712C151.316 40.024 151.308 39.336 151.308 38.648C151.308 37.96 151.316 37.264 151.332 36.56C151.396 35.12 151.732 33.912 152.34 32.936C152.964 31.944 153.82 31.2 154.908 30.704C155.996 30.208 157.268 29.96 158.724 29.96C160.164 29.96 161.428 30.208 162.516 30.704C163.62 31.2 164.484 31.944 165.108 32.936C165.732 33.912 166.068 35.12 166.116 36.56C166.148 37.264 166.164 37.96 166.164 38.648C166.164 39.336 166.148 40.024 166.116 40.712C166.052 42.168 165.716 43.384 165.108 44.36C164.5 45.32 163.652 46.04 162.564 46.52C161.476 47 160.196 47.24 158.724 47.24ZM158.724 43.784C159.572 43.784 160.26 43.528 160.788 43.016C161.332 42.504 161.62 41.688 161.652 40.568C161.684 39.864 161.7 39.2 161.7 38.576C161.7 37.952 161.684 37.304 161.652 36.632C161.62 35.88 161.476 35.272 161.22 34.808C160.98 34.328 160.644 33.976 160.212 33.752C159.78 33.528 159.284 33.416 158.724 33.416C158.18 33.416 157.692 33.528 157.26 33.752C156.828 33.976 156.484 34.328 156.228 34.808C155.972 35.272 155.828 35.88 155.796 36.632C155.78 37.304 155.772 37.952 155.772 38.576C155.772 39.2 155.78 39.864 155.796 40.568C155.844 41.688 156.132 42.504 156.66 43.016C157.188 43.528 157.876 43.784 158.724 43.784ZM169.546 47C169.37 47 169.226 46.944 169.114 46.832C169.002 46.72 168.946 46.576 168.946 46.4V30.8C168.946 30.624 169.002 30.48 169.114 30.368C169.226 30.256 169.37 30.2 169.546 30.2H172.09C172.362 30.2 172.554 30.264 172.666 30.392C172.794 30.504 172.874 30.592 172.906 30.656L178.762 39.896V30.8C178.762 30.624 178.818 30.48 178.93 30.368C179.042 30.256 179.186 30.2 179.362 30.2H182.242C182.418 30.2 182.562 30.256 182.674 30.368C182.786 30.48 182.842 30.624 182.842 30.8V46.4C182.842 46.56 182.786 46.704 182.674 46.832C182.562 46.944 182.418 47 182.242 47H179.674C179.418 47 179.226 46.936 179.098 46.808C178.986 46.68 178.914 46.592 178.882 46.544L173.026 37.664V46.4C173.026 46.576 172.97 46.72 172.858 46.832C172.746 46.944 172.602 47 172.426 47H169.546Z" fill="#999999"/>
<path d="M30.854 20.22C29.4607 20.22 28.2653 19.9927 27.268 19.538C26.2853 19.0833 25.5153 18.416 24.958 17.536C24.4153 16.656 24.1147 15.5633 24.056 14.258C24.0413 13.6567 24.034 13.0113 24.034 12.322C24.034 11.6327 24.0413 10.9727 24.056 10.342C24.1147 9.066 24.4227 7.988 24.98 7.108C25.5373 6.21333 26.3147 5.53867 27.312 5.084C28.3093 4.61467 29.49 4.38 30.854 4.38C31.822 4.38 32.7167 4.50467 33.538 4.754C34.3593 4.98867 35.078 5.34067 35.694 5.81C36.31 6.26467 36.7867 6.822 37.124 7.482C37.476 8.12733 37.6593 8.86067 37.674 9.682C37.6887 9.814 37.6447 9.924 37.542 10.012C37.454 10.1 37.344 10.144 37.212 10.144H34.242C34.0513 10.144 33.9047 10.1073 33.802 10.034C33.6993 9.946 33.6113 9.792 33.538 9.572C33.3327 8.79467 32.9953 8.26667 32.526 7.988C32.0713 7.69467 31.5067 7.548 30.832 7.548C30.0253 7.548 29.3873 7.77533 28.918 8.23C28.4487 8.67 28.192 9.41067 28.148 10.452C28.104 11.6547 28.104 12.8867 28.148 14.148C28.192 15.1893 28.4487 15.9373 28.918 16.392C29.3873 16.832 30.0253 17.052 30.832 17.052C31.5067 17.052 32.0787 16.9053 32.548 16.612C33.0173 16.3187 33.3473 15.7907 33.538 15.028C33.5967 14.808 33.6773 14.6613 33.78 14.588C33.8973 14.5 34.0513 14.456 34.242 14.456H37.212C37.344 14.456 37.454 14.5 37.542 14.588C37.6447 14.676 37.6887 14.786 37.674 14.918C37.6593 15.7393 37.476 16.48 37.124 17.14C36.7867 17.7853 36.31 18.3427 35.694 18.812C35.078 19.2667 34.3593 19.6187 33.538 19.868C32.7167 20.1027 31.822 20.22 30.854 20.22ZM46.2793 20.22C44.9299 20.22 43.7566 20 42.7593 19.56C41.7619 19.12 40.9846 18.46 40.4273 17.58C39.8699 16.6853 39.5619 15.5707 39.5033 14.236C39.4886 13.6053 39.4813 12.9747 39.4813 12.344C39.4813 11.7133 39.4886 11.0753 39.5033 10.43C39.5619 9.11 39.8699 8.00267 40.4273 7.108C40.9993 6.19867 41.7839 5.51667 42.7813 5.062C43.7786 4.60733 44.9446 4.38 46.2793 4.38C47.5993 4.38 48.7579 4.60733 49.7553 5.062C50.7673 5.51667 51.5593 6.19867 52.1313 7.108C52.7033 8.00267 53.0113 9.11 53.0553 10.43C53.0846 11.0753 53.0993 11.7133 53.0993 12.344C53.0993 12.9747 53.0846 13.6053 53.0553 14.236C52.9966 15.5707 52.6886 16.6853 52.1313 17.58C51.5739 18.46 50.7966 19.12 49.7993 19.56C48.8019 20 47.6286 20.22 46.2793 20.22ZM46.2793 17.052C47.0566 17.052 47.6873 16.8173 48.1713 16.348C48.6699 15.8787 48.9339 15.1307 48.9633 14.104C48.9926 13.4587 49.0073 12.85 49.0073 12.278C49.0073 11.706 48.9926 11.112 48.9633 10.496C48.9339 9.80667 48.8019 9.24933 48.5673 8.824C48.3473 8.384 48.0393 8.06133 47.6433 7.856C47.2473 7.65067 46.7926 7.548 46.2793 7.548C45.7806 7.548 45.3333 7.65067 44.9373 7.856C44.5413 8.06133 44.2259 8.384 43.9913 8.824C43.7566 9.24933 43.6246 9.80667 43.5953 10.496C43.5806 11.112 43.5733 11.706 43.5733 12.278C43.5733 12.85 43.5806 13.4587 43.5953 14.104C43.6393 15.1307 43.9033 15.8787 44.3873 16.348C44.8713 16.8173 45.5019 17.052 46.2793 17.052ZM56.1994 20C56.0527 20 55.9207 19.9487 55.8034 19.846C55.7007 19.7433 55.6494 19.6113 55.6494 19.45V5.15C55.6494 4.98867 55.7007 4.85667 55.8034 4.754C55.9207 4.65133 56.0527 4.6 56.1994 4.6H58.5754C58.81 4.6 58.986 4.666 59.1034 4.798C59.2354 4.91533 59.316 5.01067 59.3454 5.084L63.2174 12.036L67.0894 5.084C67.1334 5.01067 67.2067 4.91533 67.3094 4.798C67.4267 4.666 67.61 4.6 67.8594 4.6H70.2134C70.3747 4.6 70.5067 4.65133 70.6094 4.754C70.7267 4.85667 70.7854 4.98867 70.7854 5.15V19.45C70.7854 19.6113 70.7267 19.7433 70.6094 19.846C70.5067 19.9487 70.3747 20 70.2134 20H67.5954C67.434 20 67.2947 19.9487 67.1774 19.846C67.0747 19.7433 67.0234 19.6113 67.0234 19.45V11.2L64.5374 15.798C64.4787 15.93 64.3907 16.0473 64.2734 16.15C64.156 16.2527 63.9947 16.304 63.7894 16.304H62.6454C62.44 16.304 62.2787 16.2527 62.1614 16.15C62.044 16.0473 61.9487 15.93 61.8754 15.798L59.3894 11.2V19.45C59.3894 19.6113 59.338 19.7433 59.2354 19.846C59.1327 19.9487 59.0007 20 58.8394 20H56.1994ZM74.3966 20C74.2353 20 74.1033 19.9487 74.0006 19.846C73.898 19.7433 73.8466 19.6113 73.8466 19.45V5.15C73.8466 4.98867 73.898 4.85667 74.0006 4.754C74.1033 4.65133 74.2353 4.6 74.3966 4.6H77.3446C77.506 4.6 77.638 4.65133 77.7406 4.754C77.8433 4.85667 77.8946 4.98867 77.8946 5.15V19.45C77.8946 19.6113 77.8433 19.7433 77.7406 19.846C77.638 19.9487 77.506 20 77.3446 20H74.3966ZM81.5295 20C81.3681 20 81.2361 19.9487 81.1335 19.846C81.0308 19.7433 80.9795 19.6113 80.9795 19.45V5.15C80.9795 4.98867 81.0308 4.85667 81.1335 4.754C81.2361 4.65133 81.3681 4.6 81.5295 4.6H83.8615C84.1108 4.6 84.2868 4.65867 84.3895 4.776C84.5068 4.87867 84.5801 4.95933 84.6095 5.018L89.9775 13.488V5.15C89.9775 4.98867 90.0288 4.85667 90.1315 4.754C90.2341 4.65133 90.3661 4.6 90.5275 4.6H93.1675C93.3288 4.6 93.4608 4.65133 93.5635 4.754C93.6661 4.85667 93.7175 4.98867 93.7175 5.15V19.45C93.7175 19.5967 93.6661 19.7287 93.5635 19.846C93.4608 19.9487 93.3288 20 93.1675 20H90.8135C90.5788 20 90.4028 19.9413 90.2855 19.824C90.1828 19.7067 90.1168 19.626 90.0875 19.582L84.7195 11.442V19.45C84.7195 19.6113 84.6681 19.7433 84.5655 19.846C84.4628 19.9487 84.3308 20 84.1695 20H81.5295ZM103.15 20.22C101.757 20.22 100.554 19.9927 99.542 19.538C98.5446 19.0687 97.7673 18.394 97.21 17.514C96.6673 16.6193 96.3666 15.534 96.308 14.258C96.2933 13.6273 96.286 12.96 96.286 12.256C96.286 11.5373 96.2933 10.8553 96.308 10.21C96.3666 8.96333 96.6746 7.90733 97.232 7.042C97.7893 6.17667 98.574 5.51667 99.586 5.062C100.598 4.60733 101.786 4.38 103.15 4.38C104.25 4.38 105.225 4.51933 106.076 4.798C106.927 5.062 107.638 5.42133 108.21 5.876C108.797 6.33067 109.237 6.82933 109.53 7.372C109.838 7.91467 109.999 8.45 110.014 8.978C110.029 9.11 109.985 9.22 109.882 9.308C109.794 9.396 109.684 9.44 109.552 9.44H106.34C106.179 9.44 106.054 9.418 105.966 9.374C105.893 9.31533 105.827 9.23467 105.768 9.132C105.665 8.912 105.511 8.68467 105.306 8.45C105.115 8.20067 104.844 7.988 104.492 7.812C104.155 7.636 103.707 7.548 103.15 7.548C102.314 7.548 101.654 7.768 101.17 8.208C100.701 8.648 100.444 9.352 100.4 10.32C100.356 11.5813 100.356 12.8573 100.4 14.148C100.444 15.1747 100.715 15.9153 101.214 16.37C101.713 16.8247 102.373 17.052 103.194 17.052C103.751 17.052 104.243 16.9567 104.668 16.766C105.108 16.5753 105.453 16.282 105.702 15.886C105.951 15.4753 106.076 14.9547 106.076 14.324V13.906H104.008C103.847 13.906 103.707 13.8547 103.59 13.752C103.487 13.6347 103.436 13.4953 103.436 13.334V11.706C103.436 11.5447 103.487 11.4127 103.59 11.31C103.707 11.1927 103.847 11.134 104.008 11.134H109.552C109.713 11.134 109.845 11.1927 109.948 11.31C110.051 11.4127 110.102 11.5447 110.102 11.706V14.214C110.102 15.4753 109.816 16.5533 109.244 17.448C108.672 18.3427 107.858 19.032 106.802 19.516C105.761 19.9853 104.543 20.22 103.15 20.22ZM123.052 20.22C121.585 20.22 120.368 20.0147 119.4 19.604C118.432 19.1787 117.698 18.6287 117.2 17.954C116.701 17.2793 116.437 16.5607 116.408 15.798C116.408 15.6807 116.452 15.578 116.54 15.49C116.642 15.3873 116.76 15.336 116.892 15.336H119.664C119.869 15.336 120.023 15.3727 120.126 15.446C120.243 15.5193 120.346 15.6147 120.434 15.732C120.551 15.952 120.712 16.1647 120.918 16.37C121.138 16.5753 121.416 16.744 121.754 16.876C122.106 16.9933 122.538 17.052 123.052 17.052C123.902 17.052 124.54 16.92 124.966 16.656C125.406 16.392 125.626 16.0327 125.626 15.578C125.626 15.2553 125.508 14.9913 125.274 14.786C125.039 14.566 124.658 14.3753 124.13 14.214C123.616 14.038 122.927 13.862 122.062 13.686C120.947 13.4513 119.994 13.1507 119.202 12.784C118.424 12.4027 117.83 11.9113 117.42 11.31C117.009 10.694 116.804 9.93133 116.804 9.022C116.804 8.12733 117.053 7.328 117.552 6.624C118.065 5.92 118.776 5.37 119.686 4.974C120.595 4.578 121.673 4.38 122.92 4.38C123.932 4.38 124.819 4.512 125.582 4.776C126.359 5.04 127.012 5.392 127.54 5.832C128.068 6.272 128.464 6.74133 128.728 7.24C129.006 7.724 129.153 8.20067 129.168 8.67C129.168 8.78733 129.124 8.89733 129.036 9C128.948 9.088 128.838 9.132 128.706 9.132H125.802C125.64 9.132 125.501 9.10267 125.384 9.044C125.266 8.98533 125.164 8.89 125.076 8.758C124.988 8.43533 124.753 8.15667 124.372 7.922C124.005 7.67267 123.521 7.548 122.92 7.548C122.274 7.548 121.768 7.66533 121.402 7.9C121.05 8.12 120.874 8.46467 120.874 8.934C120.874 9.22733 120.969 9.484 121.16 9.704C121.365 9.924 121.695 10.1147 122.15 10.276C122.619 10.4373 123.257 10.606 124.064 10.782C125.398 11.0313 126.476 11.3467 127.298 11.728C128.119 12.0947 128.72 12.5787 129.102 13.18C129.483 13.7667 129.674 14.5073 129.674 15.402C129.674 16.3993 129.388 17.2647 128.816 17.998C128.258 18.7167 127.481 19.2667 126.484 19.648C125.486 20.0293 124.342 20.22 123.052 20.22ZM138.168 20.22C136.819 20.22 135.645 20 134.648 19.56C133.651 19.12 132.873 18.46 132.316 17.58C131.759 16.6853 131.451 15.5707 131.392 14.236C131.377 13.6053 131.37 12.9747 131.37 12.344C131.37 11.7133 131.377 11.0753 131.392 10.43C131.451 9.11 131.759 8.00267 132.316 7.108C132.888 6.19867 133.673 5.51667 134.67 5.062C135.667 4.60733 136.833 4.38 138.168 4.38C139.488 4.38 140.647 4.60733 141.644 5.062C142.656 5.51667 143.448 6.19867 144.02 7.108C144.592 8.00267 144.9 9.11 144.944 10.43C144.973 11.0753 144.988 11.7133 144.988 12.344C144.988 12.9747 144.973 13.6053 144.944 14.236C144.885 15.5707 144.577 16.6853 144.02 17.58C143.463 18.46 142.685 19.12 141.688 19.56C140.691 20 139.517 20.22 138.168 20.22ZM138.168 17.052C138.945 17.052 139.576 16.8173 140.06 16.348C140.559 15.8787 140.823 15.1307 140.852 14.104C140.881 13.4587 140.896 12.85 140.896 12.278C140.896 11.706 140.881 11.112 140.852 10.496C140.823 9.80667 140.691 9.24933 140.456 8.824C140.236 8.384 139.928 8.06133 139.532 7.856C139.136 7.65067 138.681 7.548 138.168 7.548C137.669 7.548 137.222 7.65067 136.826 7.856C136.43 8.06133 136.115 8.384 135.88 8.824C135.645 9.24933 135.513 9.80667 135.484 10.496C135.469 11.112 135.462 11.706 135.462 12.278C135.462 12.85 135.469 13.4587 135.484 14.104C135.528 15.1307 135.792 15.8787 136.276 16.348C136.76 16.8173 137.391 17.052 138.168 17.052ZM153.83 20.22C152.481 20.22 151.307 20 150.31 19.56C149.313 19.12 148.535 18.46 147.978 17.58C147.421 16.6853 147.113 15.5707 147.054 14.236C147.039 13.6053 147.032 12.9747 147.032 12.344C147.032 11.7133 147.039 11.0753 147.054 10.43C147.113 9.11 147.421 8.00267 147.978 7.108C148.55 6.19867 149.335 5.51667 150.332 5.062C151.329 4.60733 152.495 4.38 153.83 4.38C155.15 4.38 156.309 4.60733 157.306 5.062C158.318 5.51667 159.11 6.19867 159.682 7.108C160.254 8.00267 160.562 9.11 160.606 10.43C160.635 11.0753 160.65 11.7133 160.65 12.344C160.65 12.9747 160.635 13.6053 160.606 14.236C160.547 15.5707 160.239 16.6853 159.682 17.58C159.125 18.46 158.347 19.12 157.35 19.56C156.353 20 155.179 20.22 153.83 20.22ZM153.83 17.052C154.607 17.052 155.238 16.8173 155.722 16.348C156.221 15.8787 156.485 15.1307 156.514 14.104C156.543 13.4587 156.558 12.85 156.558 12.278C156.558 11.706 156.543 11.112 156.514 10.496C156.485 9.80667 156.353 9.24933 156.118 8.824C155.898 8.384 155.59 8.06133 155.194 7.856C154.798 7.65067 154.343 7.548 153.83 7.548C153.331 7.548 152.884 7.65067 152.488 7.856C152.092 8.06133 151.777 8.384 151.542 8.824C151.307 9.24933 151.175 9.80667 151.146 10.496C151.131 11.112 151.124 11.706 151.124 12.278C151.124 12.85 151.131 13.4587 151.146 14.104C151.19 15.1307 151.454 15.8787 151.938 16.348C152.422 16.8173 153.053 17.052 153.83 17.052ZM163.75 20C163.589 20 163.457 19.9487 163.354 19.846C163.251 19.7433 163.2 19.6113 163.2 19.45V5.15C163.2 4.98867 163.251 4.85667 163.354 4.754C163.457 4.65133 163.589 4.6 163.75 4.6H166.082C166.331 4.6 166.507 4.65867 166.61 4.776C166.727 4.87867 166.801 4.95933 166.83 5.018L172.198 13.488V5.15C172.198 4.98867 172.249 4.85667 172.352 4.754C172.455 4.65133 172.587 4.6 172.748 4.6H175.388C175.549 4.6 175.681 4.65133 175.784 4.754C175.887 4.85667 175.938 4.98867 175.938 5.15V19.45C175.938 19.5967 175.887 19.7287 175.784 19.846C175.681 19.9487 175.549 20 175.388 20H173.034C172.799 20 172.623 19.9413 172.506 19.824C172.403 19.7067 172.337 19.626 172.308 19.582L166.94 11.442V19.45C166.94 19.6113 166.889 19.7433 166.786 19.846C166.683 19.9487 166.551 20 166.39 20H163.75Z" fill="#666666"/>
</g>
<defs>
<clipPath id="clip0_250_21">
<rect width="200" height="200" fill="white"/>
</clipPath>
</defs>
</svg>
